<?xml version="1.0" encoding="UTF-8"?>
<svg id="Capa_2" data-name="Capa 2" xmlns="http://www.w3.org/2000/svg" viewBox="0 0 161.31 93.95">
  <defs>
    <style>
      .cls-1 {
        fill: #003189;
      }

      .cls-2 {
        fill: #d80025;
      }

      .cls-3 {
        fill: #932d46;
      }

      .cls-4 {
        fill: #ffc800;
      }
    </style>
  </defs>
  <g id="Capa_1-2" data-name="Capa 1">
    <g>
      <g>
        <path class="cls-3" d="M81.87,20.2c.1.11.28.16.46.08.03.08.1.15.18.18.04.01.08.02.12.02.1,0,.2-.04.3-.12.12.17.41.22.72.22.18,0,.36-.01.51-.03.09,0,.16-.01.22-.01.39-.02.66-.1.87-.36.2.07.71.2,1.27-.57.16-.05.97-.35.83-1.22.12-.11.5-.52.28-1.04.03-.11.12-.5-.07-.68-.04-.08-.21-.45-.53-.51-.19-.04-.39.04-.59.25-.03.03-.12.12-.14.21-.18.1-.26.29-.28.36-.14.07-.23.22-.26.3-.26-.05-.55.01-.87.18-.22-.16-.47-.25-.74-.25,0,0,0,0,0,0-.35,0-.69.15-.96.46-.35.39-.53.96-.48,1.5-.07,0-.15.02-.21.06-.11.08-.19.22-.2.37h0s0,0,0,0c-.15,0-.29.03-.38.13-.17.19-.13.38-.04.47ZM85.85,17.44c.37.14.52.55.52.56l.14-.05s-.17-.48-.6-.65c0,0,0,0,0,0,.04-.08.12-.21.26-.24.14-.03.4.05.8.56l.11-.09c-.33-.42-.63-.62-.88-.62.04-.07.11-.17.22-.21.18-.07.42,0,.71.2l.08-.12c-.27-.18-.51-.26-.71-.24.01-.01.02-.03.03-.04.16-.16.32-.23.46-.21.27.05.43.43.43.44v.02s.02.01.02.01c.13.12.07.45.03.57v.03s0,.03,0,.03c.24.51-.24.9-.26.91l-.03.03v.04c.18.86-.69,1.09-.73,1.1h-.03s-.02.03-.02.03c-.43.61-.87.61-1.09.56.35-.56.37-1.39.03-2.04-.1-.18-.21-.34-.35-.47.32-.16.61-.2.84-.11ZM82.01,19.83c.09-.08.2-.09.26-.08.06,0,.1-.01.12-.03.02-.02.05-.06.04-.11,0-.11.06-.21.13-.26.08-.05.18-.05.25,0l.13.11-.02-.17s0-.08.04-.11c.06-.05.16-.08.26-.06.06,0,.26.04.3.18l.05.17.08-.16c.09-.17.27-.23.4-.21.13.02.22.11.25.26l.14-.02c-.03-.21-.17-.35-.37-.38-.04,0-.07,0-.11,0,.04-.22.19-.77.63-.89.08.09.15.2.2.33.21.51.12,1.19-.19,1.57l.11.09c.35-.43.44-1.15.21-1.72-.16-.4-.45-.64-.81-.68-.29-.03-.57.1-.81.36-.21.24-.35.57-.4.93,0,.01,0,.05,0,.08-.02.01-.04.02-.05.04-.02.01-.03.03-.04.05-.03-.49.13-1,.45-1.35.24-.27.55-.42.85-.41h0c.44,0,.83.27,1.08.74.32.62.3,1.4-.04,1.92-.13.26-.56.38-.8.38-.06,0-.14,0-.22.01-.35.03-.99.08-1.11-.14l-.02-.04-.04-.11c-.1.12-.26.26-.41.2-.06-.02-.11-.08-.1-.15l.02-.16-.13.1c-.14.1-.3.08-.37,0-.07-.07-.05-.18.03-.28ZM83.08,18.96c.04-.33.17-.63.36-.86.2-.23.44-.34.68-.31.13.01.25.06.36.14-.5.2-.63.85-.66,1.03-.08.03-.16.09-.22.16-.08-.09-.2-.15-.36-.16-.05,0-.11,0-.17,0Z"/>
        <path class="cls-3" d="M73.25,18.38c-.14.87.67,1.17.83,1.22.36.5.74.62,1.02.62.18,0,.31-.05.36-.07.14.04.27.06.4.06.16,0,.32-.03.48-.09.04.04.11.08.25.08.14,0,.3,0,.45-.08.05.06.14.08.26.08.24,0,.47-.02.66-.14.04.03.1.05.17.05.35.02.72.03,1.07-.01.08,0,.14-.04.16-.11.02-.07-.01-.14-.09-.19-.01,0-.03-.02-.04-.03-.03-.01-.05-.03-.06-.04,0,0,0-.01,0-.02,0-.02-.02-.04-.04-.06l-.02-.02c-.11-.05-.25-.06-.39-.07-.06,0-.12-.01-.18-.02-.04-.14-.2-.23-.35-.24-.01,0-.04,0-.04,0,0,0-.01-.02-.02-.03,0,0-.01-.02-.02-.02-.06-.07-.13-.11-.21-.12.04-.53-.13-1.07-.48-1.46-.27-.29-.6-.45-.94-.45,0,0-.02,0-.03,0-.27,0-.52.09-.74.25-.32-.17-.61-.24-.87-.18-.04-.08-.12-.23-.26-.3-.02-.07-.1-.25-.28-.36-.03-.09-.11-.18-.14-.21-.2-.2-.4-.28-.59-.25-.31.06-.49.43-.53.51-.19.18-.1.57-.07.68-.22.52.16.93.28,1.04ZM77.99,19.32v.02s.04.05.08.07c.04.02.08.03.12.03.1,0,.21.07.21.16v.06s.06.01.06.01c.07.01.16.02.24.03.12.01.24.02.33.05,0,0,0,0,0,0,0,.01.01.02.02.03.03.05.07.07.11.09.01,0,.02.01.03.02.02.02.03.03.03.03h0s-.01,0-.04,0c-.35.05-.71.03-1.05.01-.07,0-.1-.02-.1-.03l-.03-.11-.09.07c-.15.13-.38.15-.62.15-.07,0-.15-.01-.16-.05l-.02-.11-.09.06c-.12.08-.26.09-.44.09-.08,0-.14-.01-.15-.04l-.02-.08-.08.04c-.08.04-.18.06-.28.08-.35-.36-.48-1.02-.3-1.56.04-.12.11-.29.24-.42.46.12.6.74.64.96h-.1s0,.15,0,.15l.68-.03c.07,0,.12,0,.15.02.07.06.13.09.2.09.04,0,.08,0,.12,0,.12,0,.24,0,.3.08ZM76.11,17.94c.1-.07.21-.13.36-.14.2-.03.41.06.6.23.28.26.44.66.44,1.04-.02,0-.04-.02-.06-.04-.08-.06-.18-.05-.25-.05l-.44.02c-.03-.21-.17-.86-.66-1.06ZM76.45,17.34s0,0,0,0c.31,0,.61.14.85.41.32.35.48.86.45,1.34-.02,0-.04,0-.07,0,0,0-.02,0-.03,0,0-.43-.18-.88-.49-1.17-.22-.21-.48-.3-.72-.27-.39.05-.7.33-.85.78-.16.49-.11,1.18.26,1.63-.16,0-.31-.01-.46-.05-.34-.52-.36-1.3-.04-1.92.24-.47.63-.74,1.08-.74ZM73.11,17.33c-.04-.12-.1-.45.03-.57h.01s0-.03,0-.03c0,0,.16-.38.43-.44.14-.03.29.04.46.21.01.01.02.02.03.04-.2-.02-.44.06-.71.24l.08.12c.29-.2.53-.26.71-.2.12.04.18.14.22.21-.25,0-.55.2-.88.62l.11.09c.4-.51.66-.58.8-.56.14.03.22.16.26.24,0,0,0,0,0,0-.44.17-.6.63-.6.65l.14.05s.14-.41.52-.56c.24-.09.52-.05.85.11-.13.13-.25.28-.35.47-.34.65-.32,1.48.03,2.04-.22.05-.66.05-1.09-.56l-.02-.02h-.03s-.91-.25-.74-1.11v-.04s-.03-.03-.03-.03c-.02-.02-.5-.4-.26-.91v-.03s0-.03,0-.03Z"/>
        <path class="cls-3" d="M80.23,19.59c0,.24-.03.5-.08.77v.03s.01.02.01.02c0,0,.16.21.43.3l.08.03v-.09s.1-.69.02-1.4c.89-.27,1.17-1.17,1.25-1.55.05-.22.03-.23,0-.26l-.03-.03h-.04c-.76.31-1.11.86-1.28,1.29-.06-.23-.14-.43-.24-.59.73-.08,1.31-.7,1.31-1.45,0-.42-.18-.8-.48-1.07l.36-.44-.68.08-.21-.35-.35.22-.27-.22-.14.28-.62-.24.16.5c-.47.27-.7.78-.7,1.25,0,.6.36,1.26,1.15,1.42.03.04.2.29.28.8-.26-.39-.71-.85-1.5-.98h-.06s-.02.05-.02.05c-.02.06.15.47.34.75.24.37.65.81,1.28.88ZM80.66,19.01c.1-.38.38-1.04,1.16-1.39-.06.33-.3,1.25-1.19,1.51l.03-.11ZM81.22,15.35l-.13.16c-.06-.05-.13-.09-.2-.12l.33-.04ZM81.52,16.67c0,.59-.39,1.08-.92,1.25.86-1.16.25-2.14-.05-2.51.56.15.98.66.98,1.26ZM80.62,15.1l.14.23c-.11-.05-.23-.08-.36-.09l.22-.14ZM80.09,15.11l.13.11s-.01,0-.02,0c-.06,0-.12,0-.17.01l.06-.12ZM79.8,15.28c-.08.02-.15.05-.22.08l-.06-.19.28.11ZM78.9,16.67c0-.54.32-1.12,1.02-1.27-.31.37-.93,1.35-.07,2.52-.65-.18-.95-.74-.95-1.25ZM80.14,15.37s.04,0,.07,0c.04,0,.07,0,.11,0,.15.14,1.2,1.24.06,2.6-.05,0-.11.01-.16.01-.05,0-.1,0-.15-.01-1.13-1.36-.07-2.46.08-2.6ZM80.1,18.12s.06,0,.1,0c.15.22.26.51.32.88l.02.14v.06c.08.56.03,1.11.01,1.33-.13-.06-.22-.15-.25-.2.05-.29.07-.57.08-.83v-.07s0-.23,0-.23h0c-.03-.58-.18-.93-.27-1.1ZM80.23,19.26l.09.18h0c-.93-.07-1.39-1.04-1.52-1.37.86.19,1.27.82,1.44,1.19Z"/>
        <path class="cls-3" d="M75.27,5.79c-.06-.07-.06-.2-.02-.28.01-.02.03-.05.05-.07,0,0,0,0,.01,0-.09.04-.21,0-.25-.09-.05-.11.02-.25.13-.29-.09.01-.17.06-.26.1-.09.03-.19.04-.27-.02-.07-.06-.08-.17-.05-.25.03-.09.1-.15.16-.22-.14.03-.27.17-.41.13-.14-.05-.16-.25-.08-.38.08-.13.21-.21.29-.34-.22.1-.45.18-.68.24-.08.02-.18.03-.24-.02-.05-.04-.04-.12,0-.16l-.33.11c-.08.03-.16.05-.24.03-.08-.02-.14-.12-.09-.18-.12.07-.25.14-.38.13-.08,0-.14-.05-.18-.12-.05-.08-.01-.12.06-.18-.13.05-.26.21-.22.36.03.11.16.16.27.15.11-.01.21-.07.31-.13-.04.03.08.16.1.17.08.06.2.07.29.05.06-.01.11-.03.16-.06.02,0,.15-.07.15-.09,0,.07.1.09.17.09.15,0,.29,0,.44-.01-.1.09-.13.26-.06.38.07.12.22.19.36.15-.11.12-.02.35.14.4.14.04.29-.02.38-.13-.01.02-.02.04-.03.06-.01.02-.02.04-.03.06-.02.04-.02.09-.02.14,0,.04.02.08.05.11.02.03.05.06.08.07.02,0,.04.01.05.01.05,0,.08-.02.12-.05-.02.04-.05.08-.07.13-.02.04-.04.09-.05.14-.01.11.08.21.19.22.06,0,.12,0,.18-.03.12-.07.19-.21.25-.33-.09.12-.31.13-.41.01Z"/>
        <path class="cls-3" d="M69.79,4.29c.09-.02.17-.08.25-.13.02-.01.05-.02.07-.01.02.01.02.04.02.06.01.11.12.19.23.2.11,0,.22-.04.31-.1,0,.02,0,.04,0,.06.05.07.14.11.22.11.09,0,.17-.02.25-.05.1-.03.22-.07.28-.16-.05.05-.12.11-.19.1-.08-.01-.13-.11-.12-.19.01-.08.07-.15.12-.21-.14.09-.3.15-.46.2-.07.02-.14.03-.2.02-.07-.02-.13-.08-.12-.15,0-.04.03-.07.05-.1.04-.04.09-.08.14-.11-.13.05-.26.11-.4.16-.1.04-.2.08-.31.07-.11,0-.22-.08-.23-.18,0-.04,0-.08.02-.12-.02.01-.04.02-.05.03-.07.05-.13.11-.17.19-.04.08-.04.17.02.24.06.07.17.09.26.06Z"/>
        <path class="cls-3" d="M76.43,1.98s-.03.01-.04.01c-.01,0-.02,0-.03.01-.05.02-.1.03-.15.03-.08,0-.16-.05-.18-.13-.01-.05,0-.11-.02-.15-.03-.04-.09-.04-.15-.03-.12.02-.37.2-.46.05-.01-.02-.02-.05-.01-.08,0-.02,0-.04.02-.06-.11.09-.21.12-.33.18-.12.06-.24.12-.36.17-.07.03-.17.05-.23-.02-.07-.09,0-.23.07-.3.06-.08.07-.08.15-.13-.32.13-.59.19-.93.31-.34.12-.68.27-.94.52-.04.04-.08.08-.09.14-.01.06.02.12.07.13-.38.12-.71.38-.93.71-.04.07-.08.17-.02.23.03.03.07.03.11.03.11,0,.22-.04.31-.1-.06-.04-.07-.13-.05-.2s.08-.13.13-.18c.22-.2.47-.36.75-.47-.04.02-.09-.03-.09-.07s.03-.09.06-.12c.03-.03.05-.06.08-.09.13-.13.28-.23.44-.31.17-.09.35-.15.53-.21.03,0,.05-.02.08-.02,0,0,.07-.02.07-.02-.05.17-.07.42.18.42.25,0,.5-.11.66-.3-.05.08-.1.18-.04.26.05.07.16.07.24.05.2-.05.38-.14.53-.28-.06.08-.12.2-.05.27,0,0,.02.02.03.02.04.02.09.02.14,0,.07-.01.13-.03.2-.06.08-.04.16-.09.22-.15,0,0,.05-.04.03-.04Z"/>
        <path class="cls-3" d="M71.33,6c-.3.15-.61.26-.94.32-.1.02-.23,0-.25-.09,0-.04.02-.08.04-.12.11-.17.26-.3.44-.4-.29.14-.59.23-.91.28-.13.02-.3,0-.31-.13,0-.05.03-.1.06-.14.12-.15.27-.28.43-.38-.26.17-.55.3-.85.39-.12.04-.27.06-.37-.01-.07-.05-.08-.16-.04-.23-.18.1-.39.16-.59.14-.04,0-.08,0-.11-.03-.1-.09.02-.25.1-.34-.12.12-.24.24-.33.39-.05.08-.08.2,0,.25.03.02.07.02.1.02.07,0,.14,0,.22-.02.04,0,.09-.02.13-.03.05-.01.1-.03.15-.05.02,0,.12-.04.13-.06-.07.17.12.36.31.36.19,0,.36-.1.51-.21-.06.09,0,.22.1.26.1.05.21.03.32.01.18-.04.36-.09.54-.17-.07.17-.31.3-.23.46.03.07.12.09.19.11.29.05.6-.01.85-.18.05-.04.11-.08.18-.08.05,0,.1.04.14.06.1.04.22.03.31-.02-.18.01-.35-.17-.32-.34Z"/>
        <path class="cls-3" d="M67.43,7.19s0-.09.02-.13c0-.01.02-.02.02-.04-.02,0-.03.02-.05.03-.02.01-.03.02-.05.03-.03.02-.07.04-.11.05-.07.03-.15.05-.23.06-.05,0-.11,0-.16,0-.03,0-.05,0-.08-.01-.02,0-.05,0-.06-.02-.02-.02-.03-.05-.03-.08,0-.03,0-.06,0-.09,0,0,0-.02,0-.02.01-.02.02-.05.04-.07.02-.02.03-.04.05-.06-.17.11-.37.2-.57.24-.03,0-.07.01-.09,0-.06-.04-.03-.12,0-.18.17-.26.37-.49.6-.7-.25.16-.47.36-.67.57-.08.09-.16.21-.13.32.03.1.15.15.26.14.11,0,.2-.06.3-.11.02-.01.05-.03.07-.04.02-.01.05-.02.07-.03-.03.07-.04.15-.03.23,0,.03.01.07.03.1.02.03.05.05.08.06.04,0,.08,0,.11-.01.05-.01.11-.03.16-.05.08-.03.15-.07.22-.11.05-.03.1-.07.15-.11,0,0,.02-.02.03-.02,0,.01,0,.03,0,.04,0,.02-.01.03-.01.05,0,.04,0,.07,0,.11.02.04.05.08.09.1.02.01.04,0,.06.01.02,0,.04,0,.06,0,.08,0,.15-.05.21-.09.19-.13.34-.32.44-.53-.21.15-.43.27-.67.37-.03.01-.12.04-.13,0Z"/>
        <path class="cls-3" d="M87.98,3.92c.07.06.11.1.06.18-.04.07-.1.11-.18.12-.14.02-.26-.06-.38-.13.04.07-.02.16-.09.18-.08.02-.16,0-.24-.03l-.33-.11s.04.12,0,.16c-.06.05-.16.04-.24.02-.23-.05-.46-.13-.68-.24.08.12.21.21.29.34.08.13.06.33-.08.38-.14.05-.27-.09-.41-.13.06.07.13.13.16.22.03.09.02.19-.05.25-.07.06-.18.05-.27.02-.09-.03-.17-.08-.26-.1.11.04.18.18.13.29-.04.09-.16.13-.25.09,0,0,0,0,.01,0,.02.02.04.04.05.07.04.08.04.21-.02.28-.1.12-.32.11-.41-.01.06.13.12.26.25.33.05.03.12.04.18.03.11-.02.2-.11.19-.22,0-.05-.02-.09-.05-.14-.02-.04-.05-.08-.07-.13.03.03.07.05.12.05.02,0,.04,0,.05-.01.04-.01.06-.04.08-.07.02-.03.04-.07.05-.11,0-.05,0-.09-.02-.14,0-.02-.02-.04-.03-.06,0-.02-.02-.04-.03-.06.09.11.25.17.38.13.16-.05.25-.27.14-.4.14.04.29-.03.36-.15.07-.12.04-.29-.06-.38.15,0,.29,0,.44.01.07,0,.17-.02.17-.09,0,.02.13.08.15.09.05.03.1.05.16.06.09.02.21,0,.29-.05.02-.01.14-.14.1-.17.1.06.2.12.31.13.11.01.24-.05.27-.15.04-.15-.09-.31-.22-.36Z"/>
        <path class="cls-3" d="M89.24,4.38c-.07.01-.14-.05-.19-.1.06.09.17.13.28.16.08.02.17.05.25.05.09,0,.18-.04.22-.11,0-.02,0-.04,0-.06.09.06.2.11.31.1.11,0,.22-.09.23-.2,0-.02,0-.05.02-.06.02-.01.05,0,.07.01.08.05.16.1.25.13.09.02.2,0,.26-.06.05-.07.05-.16.02-.24-.04-.08-.1-.14-.17-.19-.02-.01-.03-.02-.05-.03.02.04.03.08.02.12-.01.1-.12.17-.23.18-.11,0-.21-.03-.31-.07-.13-.05-.26-.11-.4-.16.05.03.1.06.14.11.03.03.05.06.05.1,0,.07-.05.13-.12.15-.07.02-.14,0-.2-.02-.16-.05-.32-.11-.46-.2.05.06.11.13.12.21.01.08-.04.18-.12.19Z"/>
        <path class="cls-3" d="M84.06,2.02c.07.06.14.11.22.15.06.03.13.05.2.06.05,0,.1.01.14,0,.01,0,.02-.01.03-.02.07-.07.01-.19-.05-.27.15.13.33.23.53.28.08.02.19.02.24-.05.06-.08,0-.18-.04-.26.16.19.41.3.66.3.24,0,.23-.25.18-.42,0,0,.06.02.07.02.03,0,.05.02.08.02.18.06.36.12.53.21.16.08.31.18.44.31.03.03.06.06.08.09.03.04.06.08.06.12,0,.05-.05.09-.09.07.28.11.53.27.75.47.05.05.11.11.13.18.02.07.01.16-.05.2.09.06.2.1.31.1.04,0,.08,0,.11-.03.06-.05.03-.16-.02-.23-.21-.34-.55-.59-.93-.71.06-.01.08-.08.07-.13-.01-.06-.05-.1-.09-.14-.26-.25-.6-.4-.94-.52-.34-.12-.69-.21-1.01-.36.08.05.17.11.23.18.06.07.13.21.07.3-.06.07-.16.05-.23.02-.12-.05-.24-.11-.36-.17-.12-.06-.23-.09-.33-.18,0,.02.01.04.02.06,0,.03,0,.06-.01.08-.09.15-.34-.02-.46-.05-.05-.01-.11,0-.15.03-.03.04-.01.1-.02.15-.02.08-.1.13-.18.13-.05,0-.1-.01-.15-.03-.01,0-.02,0-.03-.01,0,0-.03-.02-.04-.01-.01,0,.03.04.03.04Z"/>
        <path class="cls-3" d="M89.13,6.36s.09-.05.14-.06c.07,0,.12.04.18.08.24.17.56.23.85.18.07-.01.15-.04.19-.11.08-.16-.16-.29-.23-.46.17.07.35.13.54.17.11.02.22.04.32-.01.1-.05.16-.18.1-.26.15.1.32.21.51.21.19,0,.38-.19.31-.36,0,.02.11.05.13.06.05.02.1.04.15.05.04.01.09.02.13.03.07.01.15.02.22.02.03,0,.07,0,.1-.02.08-.05.05-.17,0-.25-.09-.15-.21-.27-.33-.39.08.09.2.26.1.34-.03.03-.07.03-.11.03-.21.01-.41-.04-.59-.14.04.07.03.18-.04.23-.1.07-.25.05-.37.01-.3-.09-.59-.22-.85-.39.16.1.31.23.43.38.03.04.07.09.06.14,0,.13-.18.15-.31.13-.31-.05-.62-.14-.91-.28.18.1.33.24.44.4.02.04.05.08.04.12-.02.1-.15.11-.25.09-.33-.06-.64-.17-.94-.32.03.18-.14.36-.32.34.09.06.21.07.31.02Z"/>
        <path class="cls-3" d="M92.66,7.35c.06.05.13.09.21.09.02,0,.04,0,.06,0,.02,0,.04,0,.06-.01.04-.02.07-.06.09-.1.01-.03.01-.07,0-.11,0-.02,0-.04-.01-.05,0-.01,0-.03,0-.04.01,0,.02.02.03.02.05.04.09.08.15.11.07.04.15.08.22.11.05.02.1.04.16.05.04,0,.08.01.11.01.03,0,.06-.03.08-.06.02-.03.03-.06.03-.1,0-.08,0-.16-.03-.23.02.01.05.02.07.03.02.01.05.03.07.04.09.05.19.1.3.11.11,0,.23-.04.26-.14.04-.11-.04-.23-.13-.32-.2-.21-.42-.41-.67-.57.23.21.44.44.6.7.04.06.06.15,0,.18-.03.02-.06.01-.09,0-.2-.04-.4-.12-.57-.24.02.02.04.04.05.06.02.02.02.04.04.07,0,0,0,.02,0,.02,0,.03,0,.06,0,.09,0,.03-.01.06-.03.08-.02.02-.04.02-.06.02-.03,0-.05,0-.08.01-.05,0-.11,0-.16,0-.08,0-.16-.03-.23-.06-.04-.02-.07-.03-.11-.05-.02-.01-.03-.02-.05-.03-.01,0-.03-.03-.05-.03,0,.01.02.03.02.04.02.04.03.09.02.13-.01.04-.11.02-.13,0-.24-.1-.46-.22-.67-.37.1.21.25.39.44.53Z"/>
        <path class="cls-3" d="M79.75,11.99c-.57-.08-.75-.68-.75-.68l-.14.23c.38.54.89.45.89.45Z"/>
        <path class="cls-3" d="M78.59,2.89c-.1,0-.18.08-.18.18s.08.18.18.18.18-.08.18-.18-.08-.18-.18-.18ZM78.59,3.15s-.08-.04-.08-.08.03-.08.08-.08.08.04.08.08-.04.08-.08.08Z"/>
        <path class="cls-3" d="M99.2,13.86c-.06-.09-.16-.14-.26-.13l-2.4.52-.26,1.29-.63.41c0-1.11-.06-2.27-.15-3.46l1.27.28,1.42-1.96c.07-.1.07-.22,0-.32-.06-.09-.16-.14-.26-.13l-2.4.52-.26,1.29-5.74,3.76c-.03-.49-.06-.99-.11-1.51,0-.02,0-.03,0-.04.14.02.27.03.4.03.32,0,.59-.06.83-.22.8-.51,1.05-2.06,1.09-2.36v-.04s-.08-.05-.08-.05c-.15-.1-.51-.39-.62-.8.13.01.26.04.38.09.11.04.23.1.35.16.33.16.72.34,1.19.34.15,0,.32-.02.49-.07.75-.25,1.05-.63,1.07-.65l.08-.11-.94-.08.3-.87-.19.14s-.44.33-.65.4h-.04c-.18.07-.38.14-.96-.1-.35-.15-.66-.2-.92-.17-.33.04-.57.25-.78.43-.2.18-.46.4-.54.68v.04s-.03.09-.03.14v.02s0,0,0,0c0,.09,0,.18,0,.27.02.13.05.25.1.37.04.09.09.18.14.27,0,0,0,0,0,0-.58,0-1.37-.11-2.45-.44h0s0,0,0,0c-.78-.24-1.55-.36-2.29-.36h0c-1.05,0-1.94.24-2.67.57,0-.02,0-.05-.01-.07-.02-.06-.05-.11-.09-.16-.09-.14-.17-.28-.19-.45-.03-.18,0-.37.04-.55.04-.26.02-.5-.05-.74-.04-.14-.11-.26-.2-.37-.04-.04-.07-.09-.11-.13-.02-.02-.03-.04-.05-.06.09-.14.14-.29.14-.44,0-.01.02-.04.03-.06v-.02s.04-.04.05-.06c.02-.03.05-.06.07-.1.05-.09.07-.19.06-.3v-.17s.05-.03.07-.05c.08.18.23.29.42.3.18,0,.39-.09.54-.24.03.05.08.09.14.11.16.06.31-.04.36-.07.13-.09.27-.19.37-.33.06.02.11.02.15.01.18-.03.29-.21.35-.35v-.03c.04-.07.05-.08.07-.09.14-.07.2-.2.24-.31.02,0,.04,0,.05-.02.06-.03.1-.02.15.02.08.07.19.07.28.03.08.08.17.11.28.09.07-.01.13-.04.18-.09.02.02.05.04.09.05.06.02.1.07.16.15l.02.03c.14.18.28.22.38.22.08,0,.18-.03.29-.13.15.1.28.1.36.08.09-.02.21-.09.3-.29.07-.16.12-.32.13-.47.09,0,.17-.04.23-.11.02.02.04.04.06.05.03.03.06.05.08.07.17.11.34.22.52.3.06.03.13.06.21.07.07,0,.13,0,.17-.02.02.01.05.03.08.06.5.35.81.52,1.03.39.03-.02.06-.04.09-.09.29.21.6.41.95.54.07.03.15.03.22,0,.06-.02.1-.05.13-.08.08.05.16.11.24.17.27.19.54.39.85.51.18.09.31.05.38,0,.1-.06.14-.16.17-.27.17.14.34.29.62.37h.02c.14.03.24,0,.3-.06.2.16.41.32.66.44.12.06.26.04.36-.04.05-.04.08-.09.1-.13.2.09.39.18.55.31.08.06.29.21.52.07.05-.03.09-.08.12-.15.11.09.22.18.33.25.1.08.41.29.63.17.05-.03.12-.08.14-.2.07.04.13.09.21.13.11.06.22.13.34.21.24.16.49.33.78.4h.02s.03,0,.05,0c.07,0,.13-.02.18-.06.07-.06.1-.14.09-.26-.04-.42-.31-.72-.56-.99-.63-.7-1.37-1.32-2.09-1.92-.27-.23-.55-.46-.82-.69-1.82-1.59-3.71-3.04-5.78-4.42-1.81-1.21-3.65-1.87-5.46-1.96-.78-.04-1.39.06-1.88.3-1.12.58-.76,1.79-.5,2.67l.02.07c.16.48.17.81.06,1.01-.05.08-.12.13-.22.17,0,0,0,0,0,0l-.02-.02c-.46-.53-1.19-.49-1.41-.47-.08-.05-.17-.11-.21-.15.02-.33-.05-.64-.21-.89-.05-.08-.12-.16-.19-.22,0,0,0,0,0,0,0,0,0,0,0-.02-.01-.12-.06-.23-.15-.31-.1-.1-.25-.15-.41-.15-.14,0-.27.05-.37.09h-.03c-.08.05-.17.08-.22.06-.01,0-.03-.01-.04-.02.1-.57,0-1.1-.29-1.44-.53-.63-1.56-.71-2.32-.66-1.81.09-3.65.75-5.46,1.96-2.07,1.38-3.96,2.83-5.78,4.42-.27.23-.55.47-.82.69-.72.6-1.46,1.22-2.1,1.93-.24.26-.51.56-.55.98-.02.17.08.25.12.28.04.03.09.04.15.04.14,0,.33-.08.56-.23.13-.09.27-.17.4-.25.11-.07.22-.13.33-.2.04-.03.11-.02.13.03.04.06.09.1.12.12.2.1.46-.04.86-.35.04-.03.1-.03.13.01.02.03.05.05.08.07.22.13.43-.02.51-.08.15-.11.31-.19.48-.27.04-.02.08,0,.11.03.02.02.04.04.06.06.1.08.24.09.35.04.23-.1.42-.25.6-.39.02-.02.04-.03.06-.05.07.06.16.09.3.07h.02c.22-.07.37-.17.51-.29.05-.04.12-.02.14.03.03.06.07.11.13.15.07.05.2.08.37,0,.32-.13.6-.33.87-.52.08-.06.16-.11.24-.17.03.03.07.06.13.08.07.02.15.02.22,0,.33-.12.61-.3.89-.49.04-.02.08-.02.11,0,.04.03.08.05.13.07.21.05.5-.12.93-.42.04-.03.07-.05.09-.06.04.01.1.03.17.02h.03c.23-.06.42-.19.6-.31l.1-.06s.05-.04.08-.07c.01-.01.04-.03.06-.05.05.05.11.09.17.1.04,0,.06.04.06.08.04.26.15.57.37.66.07.03.2.06.36-.03.03-.02.07-.01.1,0,.09.07.18.09.25.09.1,0,.24-.04.38-.22l.02-.03c.06-.08.1-.13.16-.15.03-.01.06-.03.09-.05.05.05.12.08.18.09.1.02.2-.02.28-.09.09.04.2.04.28-.03.05-.04.08-.05.15-.02.02,0,.04.01.05.02.04.11.1.24.24.31.02,0,.03.02.06.09v.03c.08.14.18.32.37.35.05,0,.11,0,.17-.02,0,0,0,0,0,.01l.02.1.09-.06c.14-.09.27-.24.36-.44.04.22.13.42.25.6-.39.33-.6.86-.51,1.34l.02.1.09-.05c.15-.09.28-.24.38-.44.04.28.15.54.31.75-.39.41-.48.89-.35,1.35l.03.1.08-.06c.13-.1.25-.26.33-.45.02.14.06.27.11.39.11.26.09.32.31.48-.04.06-.07.12-.11.18-.7-.29-1.54-.51-2.53-.51h0c-.74,0-1.51.12-2.29.36h0s0,0,0,0c-1.07.34-1.87.45-2.45.44,0,0,0,0,0,0,.06-.09.1-.18.14-.27.05-.12.09-.25.1-.37.01-.09.01-.18,0-.27h0s0-.02,0-.02c0-.05-.01-.09-.03-.14v-.04c-.09-.28-.34-.5-.54-.68-.21-.18-.44-.39-.78-.43-.27-.03-.57.02-.92.17-.58.23-.78.17-.96.11h-.04c-.21-.09-.65-.41-.65-.41l-.19-.14.3.87-.94.08.08.11s.31.39,1.07.65c.17.05.34.07.49.07.47,0,.86-.19,1.19-.34.12-.06.24-.12.35-.16.12-.05.25-.07.38-.09-.1.41-.47.7-.62.8l-.08.05v.04c.05.3.29,1.85,1.09,2.36.24.15.51.22.83.22.12,0,.25,0,.38-.03-.05.52-.09,1.03-.11,1.54l-5.73-3.75-.26-1.29s-2.4-.52-2.4-.52c-.1,0-.2.04-.26.13-.06.1-.06.23,0,.32l1.42,1.96,1.27-.28c-.09,1.19-.14,2.36-.15,3.46l-.63-.41-.26-1.29s-2.4-.52-2.4-.52c-.1,0-.2.04-.26.13-.06.1-.06.23,0,.32l1.42,1.96,1.23-.27c-.88,6.61.11,11.11,1.1,13.72,1.01,2.68,2.21,3.96,2.4,4.15.33.38,2.45,2.68,5.73,2.68,1.42,0,3.06-.44,4.85-1.65-.56,1.84-2,4.01-2.02,4.03l-.08.12h.14c.65-.03,1.17.03,1.56.11l-.24.99c-.03.09-.03.16-.03.16,0,.05.01.16.11.25.15.14.43.17.82.11.18-.03.32-.03.43-.02l.04,1.05s0,.04,0,.06c0,.02.01.05.03.08.13.2.6.3,1.4.3s1.27-.1,1.39-.3c.03-.05.04-.1.03-.14l.04-1.05c.11-.01.25,0,.43.02.39.07.67.03.82-.11.1-.09.11-.2.11-.24,0-.02,0-.05,0-.07,0-.06-.03-.12-.04-.18-.02-.1-.05-.2-.07-.3-.03-.12-.06-.24-.09-.36-.02-.08-.04-.15-.06-.23,0,0,0-.01,0-.02.39-.08.91-.13,1.56-.11h.14s-.08-.11-.08-.11c-.02-.02-1.46-2.2-2.02-4.04,1.8,1.22,3.44,1.66,4.86,1.66,3.29,0,5.43-2.32,5.75-2.7.05-.05,1.29-1.27,2.37-4.14.99-2.61,1.97-7.1,1.1-13.72l1.23.27,1.42-1.96c.07-.1.07-.22,0-.32ZM95.87,11.2l1.85-.4-1.11,1.53-.93-.2.19-.93ZM64,12.33l-1.11-1.53,1.85.4.19.93-.93.2ZM62.99,15.71l-1.11-1.53,1.85.4.19.93-.93.2ZM92.49,14.44l2.64-1.73c.09,1.2.14,2.37.14,3.48l-3,1.96c.13-1.12.2-2.35.23-3.72ZM89.56,16.36l1.25-.82c-.06,1.38-.17,2.63-.35,3.8l-.97.64c.09-1.14.12-2.35.07-3.62ZM89.44,20.48l1.56-1.02c-.09,2.14-.38,4.28-1.04,6.32-.34,1.04-.77,2.06-1.31,3.02-.53.96-1.16,1.87-1.85,2.71-.37.44-.75.86-1.15,1.27-.29-.28-.5-.53-.64-.69,2.07-2.58,3.93-6.4,4.44-11.61ZM82.62,32c-.04-.07-.11-.09-.17-.11h-.03s-.06-.04-.06-.05c0,0,.02-.02.04-.03.02-.01.04-.03.06-.05.08-.11.08-.23,0-.34-.11-.15-.34-.24-.5-.18-.07.02-.14.05-.2.08-.03.02-.06.03-.09.05-.04.02-.15.06-.22,0-.02-.02-.04-.04-.07-.07-.03-.04-.06-.08-.11-.1-.07-.04-.15-.05-.21-.05l-.84-.05c-.11-.01-.18.02-.23.12-.02.02-.06.02-.11.02-.05,0-.1,0-.15.01-.09.03-.14.1-.19.16-.03.04-.05.07-.09.1-.08.06-.19.04-.31.03-.06,0-.11-.02-.17-.02-.16,0-.38.07-.5.22-.07.09-.09.18-.06.29,0,.02.02.04.03.06,0,.01.02.02.02.04.02.04,0,.1-.04.14-.05.05-.13.06-.22.07-.1.01-.21.02-.3.11-.03.03-.04.06-.06.09-.01.03-.03.05-.04.06-.01.01-.04.02-.06.03-.02.01-.05.02-.07.04-.16.11-.16.3-.16.46,0,.07,0,.13,0,.18-1.34-1.28-2.71-3.07-3.79-5.42h1.1s.05.1.07.15c.16.34.32.69.62.93.08.09.14.19.2.3.06.1.12.21.2.31.12.14.26.24.4.33.4.27.85.58,1.36.68.12.03.25.04.37.05.15.02.29.03.44.07.1.03.2.06.3.1.08.03.17.06.25.09.32.09.65.11.97.12.54.02,1.1.04,1.64-.1l.08-.02c.27-.07.54-.15.73,0,.07.06.13.15.18.24.1.16.2.32.4.33.05,0,.06,0,.06,0,.01.01.01.06.01.1,0,.03,0,.06,0,.09.01.1.09.17.2.2.03,0,.06.01.09.01.09,0,.18-.04.24-.11.13-.17.06-.42-.08-.55h-.01s-.03-.04-.03-.05c0,0,0-.03.03-.08.21-.29.55-.49.9-.52.03,0,.05,0,.08,0,.13,0,.25-.02.37-.09l.11-.07-.11-.06c-.08-.04-.15-.09-.21-.14.27-.15.55-.2.87.15-.81,1.24-1.7,2.26-2.57,3.07-.02-.03-.03-.07-.04-.12v-.02s-.04-.06-.05-.08c-.01-.02-.02-.03-.03-.05,0-.02,0-.05-.01-.08,0-.03,0-.06,0-.08-.03-.14-.15-.26-.35-.33-.05-.02-.07-.03-.08-.04.01-.06.06-.13.1-.19.08-.13.18-.27.1-.45ZM78.3,14.23c-2.31.81-4.14.24-5.21-.33.22-.06.46-.13.7-.19,2.11-.4,3.68-.06,4.52.22-.01.1-.02.2,0,.3ZM79.11,14.32c.13.18.29.32.47.42l.09.05.02-.1c.03-.18,0-.4-.06-.62.15-.08.31-.16.46-.26.03.08.07.16.11.23l.05.09.06-.08c.06-.08.11-.17.15-.27,1.51.91,2.89,1.22,4.07,1.22,1.45,0,2.6-.47,3.34-.89,0,0,.07-.04.12-.07.3.08.57.16.83.22,0,.05,0,.1,0,.12.24,2.46.2,4.69-.05,6.7h-16.98c-.26-2.04-.31-4.3-.06-6.81.26-.06.55-.14.85-.22,1.21.72,3.6,1.56,6.51.28ZM77.68,9.15h0s-.01-.05-.02-.07c.14.13.31.23.49.27l.1.03v-.1c-.02-.22-.14-.46-.31-.67h0c-.12-.13-.3-.28-.5-.36.03-.12.04-.24.03-.38l.5.39.14.2v.4s.05.07.08.1c.01.02.03.04.04.06v.02s.04.04.04.06c0,.15.05.3.14.44-.02.02-.03.04-.05.06-.04.05-.07.09-.11.13-.09.1-.15.2-.19.33-.14-.1-.3-.22-.36-.25.03-.2.03-.42-.02-.65ZM77.87,3.61c0,.1-.02.19-.04.29-.03.16-.08.32-.16.46-.12.23-.29.42-.46.52,0-.36.14-.73.38-1.01.09-.1.18-.19.27-.26ZM77.76,3.35c-.29-.04-.53.04-.73.24,0,0,0,0,0,0,0-.08.02-.14.04-.2.03-.05.05-.1.08-.13.06-.09.15-.16.26-.22.06-.03.12-.05.19-.05.06,0,.11,0,.16.02.06.01.09.06.11.13.01.06,0,.09-.03.2,0,0,0,0-.01,0-.02,0-.04,0-.06,0ZM77.32,5.99h0c0-.06,0-.12,0-.18.13.17.3.31.49.39l.09.04v-.1c.02-.22-.06-.47-.2-.71h0c-.1-.14-.25-.31-.42-.42.19-.12.38-.32.51-.58h0c.07-.15.13-.31.16-.46.05.17.13.34.2.46.14.23.33.41.56.54-.24.43-.27.96-.05,1.37l.05.09.07-.08c.12-.14.21-.36.25-.61.13.28.33.51.57.66-.08.07-.16.16-.23.25-.21.28-.31.66-.26,1.01v.1s.11-.05.11-.05c.18-.09.34-.28.45-.53.05.3.18.58.37.81-.18.12-.34.28-.46.46-.13.21-.2.46-.2.71v.1s.1-.03.1-.03c.16-.06.33-.19.47-.38-.02.32.05.63.19.89-.09.04-.18.09-.28.15-.29.2-.49.53-.55.87l-.02.1h.1c.18-.04.37-.15.54-.31-.08.37-.04.76.12,1.08-.11.12-.2.27-.29.44-.15.31-.21.68-.16,1.02-.21-.19-.48-.4-.81-.62-.02-.09-.05-.17-.08-.23h0s-.04-.07-.06-.1c.13.05.26.08.4.08.04,0,.07,0,.1,0h.1s-.04-.1-.04-.1c-.08-.2-.26-.4-.49-.54h0s-.03-.02-.05-.02c-.01-.15-.05-.31-.23-.33-.06,0-.13,0-.19.02-.01,0-.03,0-.04,0,0,0-.01-.02-.02-.03-.04-.12-.07-.25-.08-.38.1.07.21.13.32.17l.1.03v-.1c0-.22-.1-.47-.26-.69h0s-.05-.05-.09-.09c.01-.04.03-.08.05-.11.09-.15.19-.3.3-.43.02-.02.04-.04.07-.04-.12-.07-.19-.15-.22-.29-.02-.1-.02-.22,0-.32,0-.02.01-.04.03-.04-.08-.02-.13-.09-.15-.17-.02-.07-.03-.17-.02-.24v-.04s-.3-.46-.3-.46c0,0-.31,0-.48-.27,0,0,0-.01-.01-.02,0-.05-.01-.1-.02-.15.12.1.26.18.4.23l.1.03v-.1c-.01-.22-.11-.47-.28-.68h0c-.14-.17-.32-.31-.51-.4.09-.18.16-.41.18-.65ZM77.2,5.12c.16.09.3.25.39.38.1.16.17.35.18.51-.15-.08-.27-.2-.37-.35-.06-.09-.1-.19-.14-.29-.01-.05-.03-.1-.04-.15,0-.03-.02-.06-.02-.09ZM78.04,3.62c.2.13.39.31.52.52.13.23.21.48.22.69-.2-.11-.37-.28-.49-.48-.14-.24-.23-.51-.25-.73ZM78.83,5.08c.06.16.09.37.08.57-.02.2-.07.38-.15.51-.13-.33-.1-.74.07-1.08ZM79,5.04c.2.14.38.33.5.54.1.19.17.4.19.59v.08c-.4-.2-.65-.7-.69-1.22ZM79.67,6.54s0,.05,0,.07c0,.03,0,.07,0,.11-.02.14-.05.27-.1.39-.08.17-.19.32-.3.42-.01-.27.08-.56.24-.79.05-.07.11-.14.17-.2ZM80.43,8.99c0,.26-.05.5-.14.69h-.02c-.16-.32-.21-.69-.14-1.05.03-.12.06-.27.11-.38.11.23.18.49.19.75ZM80.35,7.9c.15.11.28.25.37.41.09.17.15.36.15.52-.21-.14-.38-.37-.46-.65-.02-.09-.05-.19-.06-.28ZM79.97,12.94c-.05.11-.12.21-.19.29-.08-.35-.04-.75.12-1.08.06-.12.13-.23.2-.33.02.09.03.19.03.29,0,.09,0,.18,0,.27-.05.12-.09.24-.13.38-.01.06-.02.12-.03.18ZM79.98,13.43s-.01,0-.02.01c-.03-.03-.06-.06-.09-.1.03-.03.06-.07.09-.11,0,.06,0,.13.02.19ZM78.9,13.28c.2.15.37.35.48.57.12.24.18.49.17.71-.28-.19-.5-.51-.59-.87-.03-.13-.06-.28-.06-.41ZM78.92,13.98s-.03.01-.04.02c-.02-.01-.05-.02-.08-.04.01-.03.03-.07.04-.1h0s0-.04.01-.06c.02.06.04.12.07.18ZM79.46,13.71c-.14-.24-.34-.46-.56-.6,0-.09-.02-.25-.05-.42.34.23.62.47.82.66,0,.01,0,.02,0,.03l.03.1.05-.04s.04.04.06.06c0,0-.01,0-.02,0-.08.04-.16.09-.23.13-.04.02-.07.04-.11.06ZM80.12,12.98c.05-.11.09-.23.12-.35h0c.01-.07.03-.14.03-.21.04.08.07.17.09.27.04.15.07.32.07.49,0,.26-.07.51-.17.69-.13-.27-.18-.58-.15-.89ZM80.27,11.74c.13.13.23.28.3.45.07.18.1.35.09.5-.25-.23-.4-.59-.39-.95ZM80.15,11.49c-.13-.33-.13-.73-.01-1.08.04-.13.1-.25.16-.36.03.09.05.18.07.28.03.16.04.33.02.49-.03.26-.12.51-.23.68ZM79.91,10.39c-.13.14-.28.24-.42.29.07-.27.24-.51.47-.67.08-.05.15-.1.23-.13-.02.05-.04.1-.06.14l-.02.04c-.05.11-.12.22-.2.32ZM79.9,6.68s.07.09.11.12c.07.13.13.26.16.4.04.17.05.34.05.5v.06s0,.03-.01.05c0,.03,0,.07-.02.1h-.01c-.23-.25-.36-.61-.37-.97,0-.07,0-.15,0-.23,0-.04,0-.08.01-.11,0,0,0-.01,0-.02.03.04.05.07.08.11ZM79.86,6.35c.17.04.34.12.48.23.15.12.27.28.33.42-.19-.04-.38-.14-.54-.28-.08-.14-.17-.26-.27-.37ZM80.09,8.13c-.02.17-.09.37-.19.54-.1.16-.23.29-.36.37.02-.18.08-.36.17-.51.1-.16.23-.29.38-.4ZM78.66,11.71c.16.1.3.23.38.37-.17,0-.33-.05-.48-.14-.04-.02-.08-.05-.11-.08-.09-.05-.23-.22-.22-.21-.03-.03-.06-.07-.08-.1.18.01.36.07.51.15ZM78.27,11.45s0-.01.01-.02c.03-.04.06-.07.1-.08.02,0,.04-.01.06-.01s.04,0,.05.01c.01,0,.02.02.03.03,0,.01.01.03.02.05,0,.02,0,.04,0,.06,0,.01,0,.02,0,.03-.09-.03-.19-.05-.28-.07ZM77.55,7.13c.12.15.2.33.23.49-.16-.07-.31-.19-.43-.35-.05-.14-.12-.27-.2-.39-.01-.03-.02-.06-.03-.09.16.08.31.2.42.34ZM77.4,8.38c.17.07.33.21.43.32.13.15.22.32.25.48-.16-.06-.3-.16-.41-.29-.12-.14-.21-.31-.27-.5,0,0,0,0,0,0ZM78.17,10.33c.12.16.19.33.22.49-.23-.1-.43-.31-.54-.56-.03-.08-.08-.18-.1-.27.16.08.31.2.42.34ZM78.14,11.77c.06.07.13.13.21.19.1.11.18.23.25.35.12.24.18.49.17.71-.28-.19-.5-.51-.59-.87,0-.03-.02-.07-.02-.11,0-.08-.02-.16-.04-.24,0-.02,0-.04,0-.06,0,0,.02.01.02.02ZM78.69,13.82c-.06.18-.15.34-.25.45-.02-.17-.01-.34.04-.51.06-.18.15-.36.26-.48.02.18,0,.37-.05.54ZM81.92,14.08c.65-.28,2.41-.85,4.91-.37.22.06.44.12.64.18-1.32.69-3.23,1.15-5.56.2ZM88.74,21.46c-.32,2.31-.91,4.31-1.66,6.03h-6.6v-.18l.44-.94-.42-1.28c.22.03.45.1.68.23.05.19.26.97.62,1.09.13.04.28.06.44.06.31,0,.62-.07.75-.15l.09-.05-.08-.06s-.27-.19-.52-.45c-.34-.35-.33-1.02-.32-1.36,0-.03,0-.07.01-.12.05-.5.19-2.01-1.08-2.26-.27-.05-.55-.05-.83,0-.24.04-.48.12-.7.23-.18.09-.36.2-.52.32-.09.07-.2.14-.29.23-.1.11-.12.21-.14.36-.02.13-.03.25-.03.38,0,.07,0,.16.04.22.09.13.18.09.25.07.01,0,.03-.01.04-.01.02.19-.06.91-.17,1.56l-.02.15.13-.08s.44-.26,1.02-.33l-.42,1.28.46.94v.18h-6.39c-.75-1.72-1.35-3.73-1.68-6.03h16.88ZM84.5,30.25c.06.06.12.11.19.15-.05.01-.11.01-.17.02-.03,0-.06,0-.09,0-.4.04-.78.26-1.01.58-.02.03-.09.12-.05.22.02.04.05.07.08.09h.01c.09.09.14.26.06.36-.04.05-.12.06-.17.04-.02,0-.08-.03-.09-.08,0-.03,0-.05,0-.08,0-.08,0-.15-.06-.21-.04-.04-.1-.05-.16-.05-.12-.01-.2-.13-.28-.27-.06-.1-.13-.2-.22-.27-.25-.19-.57-.11-.86-.03l-.08.02c-.52.14-1.07.12-1.6.1-.31-.01-.64-.02-.94-.11-.08-.02-.16-.05-.24-.08-.1-.04-.21-.08-.32-.11-.15-.04-.31-.06-.46-.07-.12-.01-.24-.03-.36-.05-.48-.1-.92-.4-1.31-.66-.13-.09-.27-.18-.37-.31-.07-.08-.12-.18-.18-.28-.06-.11-.13-.23-.23-.34-.28-.22-.43-.54-.59-.88-.01-.03-.03-.06-.04-.09h11.94c-.4.86-.83,1.64-1.29,2.36-.42-.44-.83-.28-1.11-.1l-.08.05.07.06ZM79.62,26.36l.43-1.29c.1,0,.2,0,.3,0l.43,1.29-.43.91v.23h-.28v-.21l-.45-.92ZM81.55,23.41c-.15-.34-.44-.64-.81-.7-.3-.05-.61.07-.88.22-.22.13-.43.27-.63.44-.09.08-.17.16-.27.23-.04.02-.1.08-.15.08-.05,0-.07-.06-.07-.1,0-.16,0-.31.03-.46,0-.05.02-.09.04-.13.03-.06.07-.1.12-.14.5-.43,1.14-.72,1.8-.72.26,0,.54.05.76.19.31.21.49.58.55.95.06.37.02.75,0,1.12-.02.37,0,.76.13,1.11.13.31.36.58.66.75-.25.09-.53.12-.79.09-.09-.01-.18-.03-.25-.08-.08-.05-.14-.14-.19-.23-.11-.2-.19-.42-.25-.65-.01-.04-.02-.09-.05-.13-.02-.02-.05-.04-.08-.06-.35-.19-.75-.27-1.15-.25-.4.02-.79.13-1.15.3.09-.47.14-.95.15-1.43,0-.03,0-.05,0-.08,0,0,0-.01,0-.02.01-.03.03-.05.06-.07.28-.25.58-.48.92-.65.25-.12.54-.2.8-.11.15.05.27.16.37.29.29.37.35.87.39,1.34.05,0,.09,0,.14,0-.03-.37-.06-.75-.22-1.09ZM90.52,10.55c.2-.18.41-.36.7-.39.24-.03.52.02.85.16.63.25.85.18,1.06.11h.04c.14-.06.35-.2.51-.31l-.21.62.83.07c-.14.12-.42.33-.89.49-.64.18-1.14-.06-1.57-.27-.13-.06-.25-.12-.36-.16-.45-.17-.94-.14-1.34.07.1-.15.25-.28.39-.4ZM90.02,11.18c.25-.18.56-.27.87-.26.09.45.44.75.63.89-.14.13-.5.37-1.25.41-.09-.12-.38-.57-.25-1.04ZM85.37,11.56h0c.73,0,1.48.12,2.24.36h0c2.48.76,3.59.36,3.95.06-.09.5-.35,1.67-.99,2.08-.59.39-1.52.13-2.79-.23-.29-.08-.59-.17-.92-.25-2.72-.52-4.58.18-5.13.43-.11-.05-.23-.1-.34-.16-.02-.01-.04-.03-.07-.04-.09-.06-.19-.11-.28-.16-.08-.04-.15-.09-.23-.13,0,0-.01,0-.02,0,.57-.61,2.12-1.95,4.58-1.95ZM82.51,11.81s.03.05.04.07c.02.03.04.07.04.1,0,.08-.1.11-.17.09-.11-.05-.23-.14-.31-.22-.11-.1-.38-.48-.15-.59.13-.06.25.08.32.17.09.12.16.25.23.38ZM82.53,4.27c.25-.4.11-.95-.02-1.33l-.02-.07c-.3-1.01-.47-1.81.3-2.21.42-.21.97-.3,1.68-.26,1.74.09,3.51.72,5.26,1.9,2.05,1.37,3.93,2.81,5.74,4.39.27.24.55.47.82.7.71.59,1.44,1.21,2.06,1.89.18.19.34.38.42.6-.16-.07-.32-.17-.48-.28-.12-.08-.24-.16-.36-.23-.23-.14-.36-.22-.56-.42-.09-.07-.21-.07-.3,0-.08.08-.1.2-.03.3.04.06.07.1.08.13-.04-.02-.1-.05-.14-.09h-.01c-.14-.1-.27-.21-.41-.32-.11-.09-.22-.19-.33-.26l-.69-.49.41.74c.03.05.05.11.07.17,0,0,0,0,0,0-.23-.17-.48-.28-.72-.39l-.1-.04c-.08-.04-.18-.03-.26.02-.06.04-.1.11-.1.18-.18-.1-.34-.23-.51-.36-.05-.04-.09-.07-.14-.11l-.17-.13-.11.18s-.02.04-.03.06c0,0,0,0,0,0-.18-.06-.31-.17-.45-.29-.07-.06-.14-.12-.22-.18-.07-.05-.17-.06-.25-.02-.08.04-.13.12-.14.22v.02s0,.13-.01.19c0,0-.01,0-.02,0-.28-.11-.52-.28-.78-.47-.14-.1-.28-.2-.43-.3l-.17-.1-.1.17s-.03.05-.03.07c-.33-.12-.62-.34-.91-.54l-.07-.05s-.17-.13-.3-.04c-.04.03-.1.08-.1.2-.09-.04-.26-.13-.56-.34-.05-.03-.09-.06-.1-.07-.13-.09-.23-.07-.32-.04,0,0-.01,0-.02,0-.02,0-.06-.02-.08-.03-.16-.08-.32-.17-.47-.27-.01,0-.03-.02-.05-.04-.1-.09-.24-.2-.4-.17-.07.01-.14.06-.18.13-.09-.04-.17-.03-.24.01-.11.07-.11.21-.11.26,0,.13-.03.27-.1.44-.02.05-.04.07-.04.07,0,0-.03,0-.08-.05,0,0,0,0-.01-.01-.04-.03-.12-.11-.23-.09-.05,0-.12.03-.17.12-.04.05-.06.06-.06.07,0,0-.03-.01-.07-.06l-.02-.03c-.07-.1-.16-.21-.32-.28,0,0-.02-.03-.03-.04l-.02-.04c-.05-.07-.13-.11-.21-.11-.09,0-.16.06-.2.14v.02s-.11-.09-.19-.1c-.07,0-.12.02-.17.04-.12-.07-.26-.09-.4-.04-.07-.02-.13,0-.17.02-.11.05-.14.16-.15.2-.01.04-.04.13-.06.15-.16.08-.21.2-.25.29v.02s-.05.08-.06.1c-.05-.04-.13-.06-.2-.04-.08.02-.14.07-.17.14-.05.12-.17.21-.3.3h0s-.01-.06-.02-.09c0-.05-.02-.12-.04-.18l-.18-.49-.2.55s-.02.06-.03.09c-.05.15-.23.28-.34.27-.02,0-.07,0-.1-.13,0,0,0-.02,0-.03,0-.05-.02-.14-.09-.23l-.16.13c-.05-.23-.21-.47-.24-.53-.05-.1-.02-.29.1-.51s-.19-.76-.19-.76c.42-.51.19-1.15-.02-1.54.14-.07.26-.17.34-.29ZM81.73,4.43s.08.07.19.09c0,0,.01.01.02.02.17.2.25.41.32.67.04.14.05.28.02.42-.03.11-.08.21-.16.29-.05.05-.1.11-.15.15,0,0-.02.02-.04.03-.12.06-.34.14-.68.19,0,0-.25.18.75-.03.05.06.11.13.15.2.06.09.09.15.06.25,0,.08-.06.19-.09.27-.03.09-.06.18-.05.28.02.23.24.37.29.58.03.12,0,.24-.07.34-.03.04-.11.08-.12.11-.01.04.03.1.03.14,0,.07,0,.17-.02.24-.02.08-.08.15-.15.17.02,0,.02.03.03.04.02.1.02.22,0,.32-.03.14-.1.22-.22.29.03,0,.05.02.07.04.11.14.21.28.3.43.1.16.12.39.13.58,0,.2-.02.4-.09.59,0,.01,0,.02-.02.03-.01,0-.03,0-.04,0-.06-.01-.13-.02-.19-.02-.21.03-.24.24-.24.42l-.31-.34h0s-.18.6-.75.68c0,0,.5.09.88-.44.02.04.05.08.07.13.07.11.16.22.26.31.1.09.21.2.32.26.01,0,.02,0,.03.01-.8.43-1.34.95-1.62,1.25-.03-.02-.06-.04-.09-.05,0-.07.02-.14.02-.22h0c0-.13-.01-.27-.04-.4.04.04.09.08.14.12l.09.06.03-.1c.05-.2.02-.46-.08-.71h0c-.09-.23-.25-.43-.43-.58.13-.19.22-.44.25-.73h0c.01-.11.01-.22,0-.33.15.19.34.34.56.42l.1.03v-.1c0-.22-.09-.47-.25-.7h0c-.13-.18-.31-.32-.51-.42.1-.2.15-.47.15-.75h0c0-.08-.01-.17-.02-.25.1.12.22.21.36.28l.09.05v-.1c.04-.22-.02-.48-.15-.72h0c-.12-.2-.29-.38-.48-.5.01-.18,0-.37-.05-.57h0c-.02-.06-.04-.11-.06-.17.16.1.34.16.52.17h.1s-.02-.09-.02-.09c-.05-.21-.21-.43-.42-.6h0c-.17-.14-.38-.23-.59-.27-.02-.22-.09-.46-.21-.68h0c-.16-.27-.4-.52-.66-.67l-.04-.02c0-.24-.09-.51-.24-.76h0c-.08-.12-.17-.24-.28-.34.04.01.07.02.08.03.08.02.28.23.36.3.03.03.08.05.14.06v.3s.19-.28.37-.3c0,0,.43.18.48.62.03.22.03.5.08.71,0,.04.02.08.05.11.03.03.08.04.12.05.26.05.56.02.79-.12.11-.07.24-.16.25-.3,0-.18-.04-.35-.1-.52-.04-.1-.09-.21-.14-.3-.03-.05-.06-.1-.1-.14-.04-.05-.09-.09-.13-.14-.01-.01-.02-.02-.02-.03.21-.02.78-.02,1.11.38ZM80.4,9.88c.16.09.3.21.41.36.11.16.19.34.22.5-.23-.11-.42-.32-.54-.58-.03-.08-.07-.18-.09-.27ZM79.96,3.31v.05c0,.05,0,.1-.02.15-.03.14.04.24.13.32.02.02.04.03.07.05,0,0,.02.01.03.02.23.16.41.36.55.6.09.16.21.37.25.56.03.16-.11.3-.24.37-.18.1-.4.12-.6.07-.02,0-.04-.01-.06-.03-.03-.03-.03-.07-.03-.11,0-.09,0-.17,0-.26,0,0,0-.12,0-.12,0-.02,0-.04,0-.06h0c-.02-.41-.2-.72-.56-.98-.07-.05-.16-.1-.27-.06-.03,0-.05.01-.08.01-.01,0-.03,0-.04,0-.06,0-.1,0-.14-.05-.25-.23-.52-.37-.82-.44,0,0,0,0-.01,0,.03-.15.03-.28-.02-.42.04-.03.08-.04.13-.07.05-.03.09-.07.13-.1.07-.06.15-.13.24-.13.04,0,.08,0,.12.02.03,0,.07.01.1.02.08.01.17.01.24-.02.05-.02.1-.05.15-.04.04,0,.07.04.11.07.04.02.08.03.12.04.07.02.13,0,.18-.02.01,0,.03-.01.04-.02.23.13.34.32.32.58ZM78.86,2.32c.16.07.33,0,.33,0h.03c.11-.06.19-.08.27-.09.08,0,.15.02.2.06.03.03.06.07.07.1,0,.02.02.07,0,.12-.01.02-.03.04-.04.05-.07.07-.18.08-.26.03-.07-.04-.12-.1-.19-.12-.08-.02-.12.04-.19.07-.11.05-.23,0-.34-.02-.23-.03-.38.11-.52.27-.05.06-.13.12-.22.1-.04,0-.06-.04-.09-.06-.04-.03-.08-.05-.13-.05-.09,0-.18,0-.27-.03-.14-.06-.12-.21-.04-.31.1-.13.36-.04.47.04.02.02.05.03.07.03.03,0,.06-.01.08-.03l.05-.05c.34-.5.55-.19.72-.13ZM76.35,7.49s-.09.06-.13.12c-.01-.02-.02-.04-.04-.08v-.02c-.05-.08-.1-.21-.25-.28-.02-.02-.05-.1-.06-.15-.01-.04-.04-.14-.15-.2-.04-.02-.09-.03-.17-.02-.14-.04-.27-.03-.4.04-.04-.03-.1-.05-.17-.04-.09,0-.15.06-.19.1v-.02c-.04-.08-.12-.13-.2-.14-.09,0-.17.03-.21.11l-.02.04s-.02.03-.03.04c-.16.06-.25.18-.32.28l-.02.03s-.06.06-.06.06c0,0-.03-.02-.07-.07-.02-.03-.08-.11-.19-.12-.05,0-.12,0-.2.08-.06.06-.1.07-.1.07-.06-.02-.16-.28-.15-.5,0-.05,0-.18-.11-.26-.07-.04-.15-.05-.24-.01-.04-.07-.11-.12-.18-.13-.16-.03-.3.09-.4.17-.02.02-.03.03-.04.03l-.1.06c-.16.1-.31.2-.47.25,0,0,0,0-.01,0-.08-.03-.19-.05-.31.03-.03.02-.07.05-.12.08-.18.13-.33.22-.44.28-.05.03-.11,0-.13-.05-.01-.04-.04-.08-.09-.11-.13-.07-.25.02-.3.06l-.06.04c-.29.21-.59.42-.91.54,0-.02-.02-.05-.03-.07l-.1-.16-.16.1c-.15.09-.29.2-.43.3-.26.19-.5.36-.79.48,0,0,0,0,0,0,0-.06-.01-.14-.01-.19h0c0-.11-.05-.19-.14-.23-.08-.04-.18-.03-.25.02-.08.06-.16.12-.23.18-.14.12-.27.23-.45.29,0,0,0-.02-.01-.03-.02-.04-.03-.08-.05-.13-.02-.06-.09-.07-.14-.04-.04.03-.07.06-.1.08-.08.06-.16.12-.24.18-.14.11-.28.22-.43.3,0-.07-.04-.14-.1-.19-.07-.05-.17-.06-.26-.02l-.1.04c-.24.11-.49.22-.72.39,0,0,0,0,0,0,.02-.06.04-.11.07-.16,0,0,0,0,0-.02.02-.09.07-.18.08-.28.02-.14-.12-.13-.21-.07l-.16.1s0,0,0,0c-.03.02-.08.07-.17.14-.33.28-.57.46-.71.54.01-.03.04-.07.09-.13.06-.09.05-.22-.04-.29-.08-.08-.21-.08-.31,0-.24.23-.5.39-.77.55-.13.08-.27.16-.41.26-.07.04-.14.09-.21.12.07-.22.24-.41.42-.61.61-.68,1.34-1.29,2.05-1.89.27-.23.55-.46.82-.7,1.81-1.58,3.69-3.02,5.74-4.39,1.75-1.17,3.52-1.81,5.26-1.9.55-.03,1.55,0,2.01.53.22.26.29.7.21,1.15-.21-.03-.39.27-.39.27-.11-.06-.23-.1-.35-.08-.21.03-.31.23-.26.43v.02s.02.06.03.08c0,.01-.01.02-.03.03,0,0-.02.01-.03.02-.02.01-.03.02-.05.03-.03.02-.05.04-.08.07-.05.04-.1.08-.15.13-.22.23-.28.5-.19.81,0,.02,0,.03.01.05.1.28.07-.18.32-.3.22-.1.41-.12.56-.11-.09.07-.17.15-.25.24-.26.3-.41.71-.41,1.11-.02,0-.03,0-.05.01h0s0,0,0,0c-.34.08-.64.38-.71.73l-.02.09h.09c.15-.01.29-.09.38-.16-.11.37-.09.77.05,1.11-.24.21-.41.51-.47.82ZM76.79,7.31s-.02.09-.04.13c-.06.16-.14.3-.24.4-.01,0-.02.01-.04.02-.03-.35.1-.71.35-.98-.02.13-.03.27-.03.39,0,.02,0,.03,0,.04ZM76.77,5.37c-.09.08-.19.15-.28.18.09-.22.28-.41.5-.49,0,0,0,0,0,0-.03.05-.06.1-.09.16-.04.05-.07.1-.12.14ZM76.92,5.58c.03-.09.06-.2.11-.29.01-.02.03-.05.04-.07,0,.01,0,.03.01.04.01.06.03.12.05.17.04.18.06.36.05.54-.02.23-.08.44-.17.61l-.05.06v-.02c-.14-.32-.15-.7-.05-1.05ZM76.93,7.32c.03-.15.05-.3.04-.43h0s.03.03.04.06c.02.06.05.12.07.17.04.08.08.15.13.22.03.07.05.14.07.22.05.23.05.46,0,.65l-.09-.02c-.17-.24-.26-.55-.27-.86ZM77.08,8.44c-.03.12-.04.25-.04.37-.02.07-.03.13-.05.18-.07.18-.18.33-.29.43-.03-.36.12-.74.39-1,0,0,0,0,0,.01ZM77.38,10.67c-.06.19-.15.35-.25.46-.06-.35.05-.74.29-1.04.03.19,0,.41-.04.58ZM77.53,9.91s0,0,0-.01l-.04-.05v-.02c-.2-.26-.31-.59-.3-.93,0-.02,0-.04,0-.06.02-.11.04-.22.04-.34.15.2.26.44.31.68.05.26.05.52-.01.73ZM77.71,11.2c-.12-.29-.16-.63-.11-.98.16.19.28.43.35.67.05.17.06.35.05.52v.03s-.02.1-.02.1c0,0,0,0,0,0,0,.02,0,.05-.01.07-.09-.1-.19-.24-.26-.42ZM77.85,12.09c.04-.08.08-.17.13-.24,0,.07.02.14.03.21,0,.12,0,.24-.02.36-.04.2-.11.37-.21.49-.07-.26-.05-.56.07-.82ZM69.14,10.88c-.11.04-.23.1-.36.16-.44.21-.93.45-1.57.27-.47-.16-.75-.37-.89-.49l.83-.07-.21-.62c.15.1.37.24.51.29h.04c.2.08.43.15,1.06-.1.33-.14.61-.19.85-.16.29.04.5.22.7.39.14.12.29.25.39.4-.4-.2-.89-.23-1.34-.07ZM69.72,10.92c.32,0,.62.09.87.26.13.47-.17.92-.25,1.04-.75-.04-1.11-.27-1.25-.41.19-.14.54-.45.63-.89ZM70.04,14.05c-.64-.41-.91-1.58-.99-2.08.37.3,1.47.7,3.95-.06h0c.76-.24,1.52-.36,2.24-.36h0c.96,0,1.79.21,2.47.5-.14.33-.15.71-.02,1.03l.04.1.08-.07c.15-.14.27-.37.33-.64.12.28.31.52.55.68-.14.14-.26.35-.33.58,0,.02-.01.05-.02.07-.86-.29-2.46-.63-4.58-.22-.3.08-.58.16-.85.23,0,0,0,0,0,0h0s-.05.01-.07.02c-1.28.36-2.2.62-2.79.23ZM71.04,16.36c-.04,1.24-.02,2.45.08,3.63l-.98-.64c-.18-1.17-.29-2.42-.35-3.8l1.25.82ZM71.17,20.48c.32,3.2,1.17,6.13,2.52,8.69.56,1.05,1.21,2.04,1.92,2.93-.13.16-.34.4-.62.67-.4-.41-.79-.83-1.16-1.27-.7-.84-1.33-1.75-1.85-2.71-.53-.97-.97-1.98-1.31-3.02-.66-2.03-.95-4.15-1.04-6.28l1.54,1.01ZM65.47,12.72l2.64,1.72c.03,1.37.1,2.6.23,3.72l-3-1.96c0-1.11.05-2.28.14-3.48ZM67.85,33.49s-1.29-1.27-2.34-4.06c-.96-2.55-1.91-6.92-1.08-13.36l3.15,2.06c0,.38.02.76.03,1.14.08,2.19.37,4.39,1.05,6.48.34,1.04.77,2.06,1.31,3.02.53.96,1.16,1.87,1.85,2.71.64.77,1.34,1.49,2.08,2.15-1.36.9-3.37,1.55-5.74.18-.15-.15-.26-.27-.31-.33ZM68.59,34.21c.82.39,1.6.55,2.32.55,2.47,0,4.23-1.87,4.79-2.55.69.85,1.44,1.61,2.22,2.24-4.46,3.01-7.87,1-9.33-.24ZM76.32,38.77c.31-.48,1.5-2.38,1.98-4.01.3.23.61.44.92.63l-.49,3.8c-.25-.13-1.01-.44-2.41-.42ZM77.89,39.06c.47.11.74.24.82.29,0,.01,0,.03-.03.05-.04.05-.17.14-.54.18-.19.02-.33.08-.42.15l.16-.67ZM79.11,41.08s-.07.07-.1.11l-.02-.64c.07.02.12.05.15.07.1.07.11.16.11.16h0s0,.17-.15.29ZM79.27,40.54c-.17-.15-.41-.18-.64-.16-.23.02-.45.07-.68.05-.09,0-.18-.03-.24-.09-.1-.1-.09-.28,0-.39.09-.11.23-.17.37-.2s.29-.04.42-.08c.14-.04.27-.13.33-.26.02-.06.03-.12.04-.18l.2-1.6c.03-.27.07-.53.1-.8l.1-.8c.02-.13.03-.27.05-.4,0-.03,0-.07.01-.1,0-.01,0-.03,0-.05,0-.02.02,0,.03,0,.06.03.12.07.17.1.03.02.06.03.09.05-.13,1.63-.25,3.27-.38,4.9ZM81.6,41.19s-.06-.08-.1-.11c-.11-.1-.14-.19-.15-.25v-.04s.02-.09.12-.16c.04-.03.09-.05.15-.07l-.02.64ZM82.93,40.28s-.02.03-.03.04c-.08.08-.2.1-.31.11-.21,0-.42-.04-.64-.05-.21-.01-.44.02-.61.15-.12-1.56-.25-3.12-.37-4.68,0-.07,0-.13.02-.19.05-.1.17-.15.28-.18.14,1.18.29,2.36.43,3.53.02.2.06.42.21.55.18.16.45.13.67.19.21.05.5.28.35.53ZM82.87,39.73c-.1-.07-.23-.13-.42-.15-.37-.04-.5-.13-.54-.18-.02-.02-.02-.04-.03-.05.09-.05.35-.18.82-.29l.16.67ZM84.28,38.77c-1.4-.02-2.15.29-2.41.42l-.49-3.8c.3-.18.6-.39.92-.63.48,1.63,1.67,3.54,1.98,4.02ZM80.3,35.32c-.8-.39-1.73-1.02-2.67-1.91.03-.09.03-.2.03-.29,0-.14,0-.28.09-.34.02-.01.03-.02.05-.03.03-.01.07-.03.1-.06.03-.03.05-.07.07-.1.01-.02.02-.05.03-.06.05-.05.12-.05.21-.06.1-.01.22-.02.31-.11.08-.08.11-.2.07-.3,0-.02-.02-.04-.03-.06,0-.01-.02-.02-.02-.03-.02-.05,0-.1.03-.15.08-.11.26-.17.38-.16.05,0,.1,0,.15.02.14.02.29.04.42-.05.05-.04.08-.08.12-.13.04-.05.07-.1.12-.11.03,0,.07,0,.11,0,.08,0,.17,0,.24-.08h0c.02-.06.03-.07.09-.06l.85.05c.05,0,.11,0,.14.03.02.02.05.04.07.07.03.03.06.07.1.1.09.06.23.07.36,0,.04-.02.07-.03.1-.05.06-.03.11-.06.17-.07.1-.03.27.03.34.13.04.06.04.11.01.16,0,0-.02.02-.03.02-.03.02-.08.05-.1.11-.03.1.05.18.15.22h.03s.07.04.08.05c.04.09-.01.17-.1.3-.05.08-.11.17-.12.27h0s0,.02,0,.02c.01.11.12.14.18.16.07.02.23.09.25.21,0,.02,0,.04,0,.06,0,.04,0,.09.02.14.01.03.03.05.05.08.01.01.02.03.03.04,0,.08.03.14.07.19-.91.83-1.8,1.42-2.57,1.79ZM82.68,34.45c.73-.6,1.49-1.34,2.22-2.24.55.67,2.32,2.55,4.8,2.55.71,0,1.49-.16,2.31-.54-1.48,1.25-4.88,3.24-9.33.23ZM95.1,29.42c-1.05,2.8-2.3,4.03-2.32,4.05-.06.06-.17.19-.33.35-2.36,1.36-4.36.72-5.72-.17.74-.66,1.44-1.37,2.07-2.14.7-.84,1.33-1.75,1.85-2.71.53-.97.97-1.98,1.31-3.02.68-2.09.97-4.29,1.05-6.48.01-.39.02-.79.03-1.18l3.13-2.05c.83,6.44-.12,10.81-1.08,13.36ZM97.61,15.71l-.93-.2.19-.93,1.85-.4-1.11,1.53Z"/>
        <path class="cls-3" d="M85.86,12.63c.1,0,.2.02.31.02.06,0,.09.02.12.03.04.02.06.07.06.13,0,.05,0,.1,0,.15,0,.04,0,.06,0,.07v.03c.06,0,.11.01.17.02v-.02s-.03-.03-.03-.06c0-.02,0-.04,0-.08,0-.04,0-.08.01-.12,0-.05,0-.09-.02-.12-.02-.03-.04-.05-.08-.07.05-.02.08-.04.11-.07.03-.03.05-.07.06-.13.01-.1-.02-.18-.11-.23-.05-.03-.11-.04-.19-.05-.16-.01-.32-.03-.48-.04-.02.31-.04.61-.06.92.04,0,.09,0,.13,0,0-.13.02-.26.03-.39ZM85.89,12.22c.11,0,.23.02.34.03.05,0,.08.02.11.03.05.03.07.08.06.14,0,.06-.03.1-.07.12-.04.02-.09.03-.16.02-.1,0-.21-.02-.31-.03,0-.11.02-.21.03-.31Z"/>
        <path class="cls-3" d="M87.42,13.03c.05-.07.09-.15.11-.25.03-.12.02-.23-.03-.32-.06-.1-.16-.17-.29-.19-.14-.02-.28-.05-.41-.06-.05.3-.09.61-.14.91.13.02.26.04.38.06.16.03.29-.02.38-.14ZM86.8,13.02c.04-.23.07-.46.11-.7.08.01.16.03.24.04.11.02.18.06.22.14.04.07.04.16.02.27,0,.03-.02.06-.03.09-.02.05-.05.1-.08.13-.04.04-.09.06-.14.07-.03,0-.07,0-.11,0-.07-.01-.15-.02-.23-.04Z"/>
        <path class="cls-3" d="M88.32,13.35c-.19-.05-.37-.1-.56-.15.02-.1.05-.2.07-.3.18.04.35.09.53.13,0-.03.02-.07.03-.1-.18-.05-.35-.09-.53-.14.02-.09.05-.18.07-.27.2.05.39.1.59.15.01-.04.02-.07.03-.11-.24-.07-.48-.13-.73-.18-.07.3-.14.6-.21.9.23.05.46.11.68.17.01-.04.02-.07.03-.11Z"/>
        <path class="cls-3" d="M88.56,13.54c.08-.24.15-.47.23-.71.09.29.16.57.23.86.04.02.09.03.13.05.11-.29.22-.57.34-.86-.04-.02-.08-.03-.12-.05-.09.23-.18.46-.27.7-.07-.29-.14-.58-.22-.86-.05-.02-.1-.03-.16-.05-.09.29-.19.58-.28.88.04.01.08.02.12.04Z"/>
        <path class="cls-3" d="M83.67,13.08s.09,0,.13-.01c-.01-.12-.02-.25-.04-.37.11-.2.22-.39.35-.58-.06,0-.11,0-.17.01-.09.16-.18.31-.26.47-.11-.14-.23-.27-.34-.4-.06,0-.11.01-.17.02.16.16.31.33.45.5.01.12.03.25.04.37Z"/>
        <path class="cls-3" d="M85.05,13.03c.16,0,.28-.05.37-.15.08-.09.12-.2.13-.34,0-.13-.02-.23-.09-.32-.08-.11-.22-.16-.4-.16-.18,0-.31.06-.4.18-.07.09-.1.2-.1.32,0,.14.05.25.13.34.09.09.21.14.36.14ZM84.81,12.27c.07-.07.16-.1.26-.1.11,0,.2.03.26.1.06.07.09.16.08.26,0,.1-.03.19-.09.27-.05.08-.14.12-.26.11-.12,0-.21-.03-.27-.1-.05-.07-.09-.15-.09-.26,0-.13.03-.22.1-.29Z"/>
        <path class="cls-3" d="M70.72,13.76c-.1-.26-.2-.52-.3-.79-.04.02-.09.03-.13.05.12.29.23.59.35.89.2-.07.4-.14.6-.2-.01-.04-.02-.07-.03-.11-.16.05-.32.1-.48.16Z"/>
        <path class="cls-3" d="M71.12,12.78c.1.3.2.6.29.91.04-.01.09-.02.13-.04-.09-.3-.18-.61-.28-.91-.05.01-.09.03-.14.04Z"/>
        <path class="cls-3" d="M72.32,12.97s-.07-.03-.13-.04c.03-.02.05-.05.07-.07.03-.05.04-.1.02-.15-.01-.05-.04-.09-.08-.12-.07-.05-.16-.07-.28-.04-.15.03-.3.07-.44.11.09.3.18.61.27.91.13-.04.27-.07.4-.1.13-.03.21-.08.25-.17.03-.06.04-.11.02-.17-.02-.07-.05-.12-.11-.15ZM71.72,13c-.03-.09-.05-.19-.08-.28.08-.02.17-.04.25-.06.06-.01.11-.02.14-.02.06,0,.1.04.11.1.01.06,0,.11-.04.14-.03.02-.07.04-.13.05-.08.02-.16.04-.25.06ZM72.28,13.26c-.02.05-.08.09-.16.1-.1.02-.19.05-.28.07-.03-.11-.06-.22-.09-.32.09-.02.18-.04.27-.06.06-.01.1-.02.14-.01.07.01.11.05.13.12,0,.04,0,.08,0,.11Z"/>
        <path class="cls-3" d="M73.35,13.08c-.2.03-.4.06-.6.09-.02-.11-.04-.21-.06-.32.19-.03.37-.06.56-.09,0-.04-.01-.07-.02-.11-.19.03-.38.05-.57.09-.02-.09-.04-.19-.06-.28.21-.04.42-.07.63-.1,0-.04-.01-.08-.02-.12-.26.03-.52.07-.77.12.07.31.14.62.2.93.24-.04.48-.08.73-.11,0-.04-.01-.07-.02-.11Z"/>
        <path class="cls-3" d="M73.76,13.12c-.02-.13-.03-.27-.05-.4.11-.01.21-.02.32-.03.06,0,.1,0,.13,0,.05.02.08.06.08.12,0,.05.02.1.02.16,0,.04,0,.06.01.07v.03c.07,0,.13,0,.18,0v-.02s-.04-.03-.05-.05c0-.02-.01-.04-.01-.08,0-.04-.01-.08-.02-.13,0-.05-.02-.09-.04-.12-.02-.02-.06-.04-.1-.05.04-.02.08-.06.1-.09.02-.04.03-.08.03-.14,0-.11-.07-.18-.17-.21-.06-.02-.12-.02-.21-.02-.17.01-.33.03-.5.05.05.31.09.63.13.94.04,0,.09,0,.13-.01ZM74,12.26c.05,0,.09,0,.12.01.06.02.09.07.1.13,0,.06,0,.11-.05.13-.04.03-.09.04-.15.05-.11,0-.22.02-.33.03-.01-.11-.03-.22-.04-.32.12-.01.23-.02.35-.03Z"/>
        <path class="cls-3" d="M74.76,12.21c.02.28.03.56.04.84.05,0,.09,0,.14,0,0-.28-.02-.56-.03-.84.12,0,.24,0,.37,0,0-.04,0-.08,0-.11-.3,0-.59,0-.88.01,0,.04,0,.08,0,.11.12,0,.24,0,.36-.01Z"/>
        <path class="cls-3" d="M75.35,13.04c.04-.09.08-.19.11-.28.14,0,.28.01.42.02.03.1.06.19.09.29.05,0,.1,0,.15.01-.11-.33-.22-.65-.35-.98-.06,0-.11,0-.17,0-.14.31-.27.62-.4.94.05,0,.09,0,.14,0ZM75.68,12.24c.05.14.11.29.15.43-.11,0-.22-.01-.33-.01.06-.14.12-.28.18-.41Z"/>
        <path class="cls-3" d="M77.07,12.98c.05-.08.09-.16.1-.26.02-.13,0-.24-.07-.34-.07-.1-.19-.17-.34-.19-.15-.02-.3-.03-.45-.05-.02.32-.03.63-.06.95.14.01.28.03.42.05.18.02.31-.03.4-.16ZM76.4,13c.02-.24.04-.49.05-.73.09,0,.18.02.26.03.12.01.21.06.25.13.05.07.07.17.05.28,0,.03-.01.06-.02.1-.02.06-.05.11-.08.14-.04.04-.09.07-.15.08-.03,0-.07,0-.12,0-.08,0-.17-.02-.25-.03Z"/>
        <path class="cls-3" d="M81.36,29.61h-.02s0-.09,0-.09h-.14v-.24h.26v-.61h0s-.2,0-.2,0h-.06s0-.18,0-.18c0-.05-.02-.09-.06-.11-.04-.02-.09-.03-.13,0-.04.02-.06.07-.06.11v.18h-.22q-.07,0-.17,0h-.05v-.18s-.02-.09-.06-.11c-.04-.02-.09-.02-.13,0-.04.02-.06.07-.06.11v.18h-.05c-.1,0-.17,0-.17,0h-.21v-.18s-.02-.09-.06-.11c-.04-.02-.09-.02-.13,0-.04.02-.06.07-.06.11v.18h-.26v.62h.26v.24h-.18v.09h-.02s-.17-.22-.17-.22h-.66l.3.44.37.24h1.15s0,0,0,0h0s0,0,0,0h1.15s.37-.25.37-.25l.3-.44h-.66l-.17.22ZM80.88,28.82h.44v.32h-.44v-.32ZM80.95,29.29v.24h-.17v.1h-.16s0-.1,0-.1h-.11v-.24h.44ZM80.16,28.82h.05c.1,0,.15-.03.17-.05.02.02.07.05.17.05h.05v.32h-.44v-.32ZM80.26,29.29v.24h-.15v.1h-.16v-.1h-.13v-.24h.44ZM79.45,29.14v-.32h.44v.32h-.44ZM81.91,29.53l-.13.2-.3.19h-1.11s-1.11,0-1.11,0l-.3-.19-.13-.2h.31l.17.22h.23s0-.08,0-.08h.27v.09h.45s0-.09,0-.09h.22v.1h.45v-.1h.27v.09h.23s.17-.22.17-.22h.31Z"/>
        <path class="cls-3" d="M81.36,33.71h-.02s0-.09,0-.09h-.14v-.24h.26v-.61h0s-.2,0-.2,0h-.06s0-.18,0-.18c0-.05-.02-.09-.06-.11-.04-.02-.09-.03-.13,0-.04.02-.06.07-.06.11v.18h-.22q-.07,0-.17,0h-.05v-.18s-.02-.09-.06-.11c-.04-.02-.09-.02-.13,0-.04.02-.06.07-.06.11v.18h-.05c-.1,0-.17,0-.17,0h-.21v-.18s-.02-.09-.06-.11c-.04-.02-.09-.02-.13,0-.04.02-.06.07-.06.11v.18h-.26v.62h.26v.24h-.18v.09h-.02s-.17-.22-.17-.22h-.66l.3.44.37.24h1.15s0,0,0,0h0s0,0,0,0h1.15s.37-.25.37-.25l.3-.44h-.66l-.17.22ZM80.88,32.92h.44v.32h-.44v-.32ZM80.95,33.39v.24h-.17v.1h-.16s0-.1,0-.1h-.11v-.24h.44ZM80.16,32.92h.05c.1,0,.15-.03.17-.05.02.02.07.05.17.05h.05v.32h-.44v-.32ZM80.26,33.39v.24h-.15v.1h-.16v-.1h-.13v-.24h.44ZM79.45,33.25v-.32h.44v.32h-.44ZM81.91,33.64l-.13.2-.3.19h-1.11s-1.11,0-1.11,0l-.3-.19-.13-.2h.31l.17.22h.23s0-.08,0-.08h.27v.09h.45s0-.09,0-.09h.22v.1h.45v-.1h.27v.09h.23s.17-.22.17-.22h.31Z"/>
        <path class="cls-3" d="M77.98,11.54s0,0,0,0c0,0,0,0,0,0Z"/>
      </g>
      <g>
        <path class="cls-3" d="M45.6,61.8c-1.34,0-2.48-.27-3.44-.81-.95-.54-1.69-1.31-2.2-2.3-.51-.99-.77-2.16-.77-3.51s.25-2.51.77-3.5c.51-.98,1.24-1.75,2.2-2.29.95-.54,2.1-.81,3.44-.81.86,0,1.68.13,2.45.4.77.27,1.41.65,1.9,1.15l-.77,1.86c-.55-.46-1.11-.8-1.68-1.01-.57-.21-1.19-.32-1.84-.32-1.3,0-2.29.39-2.97,1.18-.68.78-1.02,1.9-1.02,3.34s.34,2.56,1.02,3.35c.68.79,1.67,1.18,2.97,1.18.66,0,1.27-.11,1.84-.32.57-.21,1.13-.55,1.68-1.01l.77,1.86c-.5.49-1.13.87-1.9,1.14-.77.27-1.59.41-2.45.41Z"/>
        <path class="cls-3" d="M55.85,61.8c-.92,0-1.73-.19-2.41-.57-.68-.38-1.21-.91-1.59-1.61-.38-.7-.57-1.52-.57-2.47s.19-1.77.57-2.46c.38-.69.9-1.23,1.59-1.6.68-.38,1.48-.57,2.41-.57s1.73.19,2.41.57c.68.38,1.21.91,1.59,1.6.38.69.56,1.51.56,2.46s-.19,1.77-.56,2.47c-.38.7-.91,1.24-1.59,1.61-.68.38-1.48.57-2.41.57ZM55.85,60.07c.68,0,1.23-.25,1.64-.74s.62-1.22.62-2.18-.21-1.7-.62-2.18-.96-.72-1.64-.72-1.23.24-1.64.72-.62,1.21-.62,2.18.21,1.69.62,2.18.96.74,1.64.74Z"/>
        <path class="cls-3" d="M62.32,61.62v-8.91h2.22v1.79h-.2c.16-.41.38-.77.66-1.06.28-.29.61-.52,1-.67.39-.16.82-.24,1.29-.24.72,0,1.31.17,1.77.51.46.34.78.86.97,1.57h-.25c.24-.64.64-1.15,1.2-1.52.56-.37,1.2-.56,1.93-.56.68,0,1.24.13,1.69.4.44.27.77.67.99,1.21.22.54.33,1.22.33,2.05v5.43h-2.28v-5.34c0-.68-.11-1.18-.34-1.49-.23-.32-.6-.47-1.14-.47-.39,0-.73.09-1.02.28s-.51.46-.67.81c-.15.35-.23.78-.23,1.28v4.94h-2.28v-5.34c0-.68-.11-1.18-.34-1.49-.22-.32-.6-.47-1.12-.47-.4,0-.74.09-1.03.28-.29.19-.5.46-.66.81-.15.35-.23.78-.23,1.28v4.94h-2.28Z"/>
        <path class="cls-3" d="M82.66,61.8c-1.01,0-1.88-.19-2.61-.57-.73-.38-1.29-.91-1.69-1.6-.4-.69-.59-1.51-.59-2.46s.19-1.73.57-2.42c.38-.69.91-1.24,1.59-1.63.67-.39,1.44-.59,2.31-.59s1.58.18,2.19.55c.61.37,1.08.88,1.41,1.55.33.67.5,1.46.5,2.39v.67h-6.73v-1.31h5.12l-.29.27c0-.83-.18-1.46-.55-1.91-.36-.44-.89-.67-1.57-.67-.51,0-.95.12-1.3.36-.36.24-.63.57-.82,1-.19.43-.28.95-.28,1.54v.13c0,.67.1,1.22.31,1.66.21.44.52.77.93.98.41.22.92.33,1.53.33.5,0,1-.08,1.49-.23.5-.15.95-.39,1.37-.72l.64,1.53c-.43.35-.96.63-1.6.84-.64.21-1.29.31-1.93.31Z"/>
        <path class="cls-3" d="M88.14,61.62v-8.91h2.22v2.15h-.18c.17-.73.5-1.29,1-1.67s1.16-.6,1.99-.67l.69-.05.15,1.93-1.31.13c-.74.07-1.3.3-1.68.68-.38.38-.56.92-.56,1.61v4.79h-2.31Z"/>
        <path class="cls-3" d="M99.41,61.8c-.94,0-1.75-.19-2.44-.57-.69-.38-1.23-.93-1.6-1.63-.38-.7-.57-1.53-.57-2.48s.19-1.76.57-2.45c.38-.69.91-1.22,1.6-1.59.69-.37,1.51-.56,2.44-.56.57,0,1.14.09,1.69.27.56.18,1.02.44,1.39.77l-.67,1.59c-.32-.28-.67-.49-1.07-.64s-.77-.22-1.14-.22c-.79,0-1.4.25-1.83.74-.43.49-.65,1.19-.65,2.11s.22,1.61.65,2.12c.43.52,1.04.77,1.83.77.35,0,.73-.07,1.13-.22.4-.15.76-.36,1.08-.66l.67,1.6c-.36.32-.83.57-1.39.76-.57.19-1.13.28-1.69.28Z"/>
        <path class="cls-3" d="M103.75,50.79v-2.22h2.55v2.22h-2.55ZM103.89,61.62v-8.91h2.28v8.91h-2.28Z"/>
        <path class="cls-3" d="M112.6,61.8c-.92,0-1.73-.19-2.41-.57-.68-.38-1.21-.91-1.59-1.61-.38-.7-.57-1.52-.57-2.47s.19-1.77.57-2.46c.38-.69.9-1.23,1.59-1.6.68-.38,1.48-.57,2.41-.57s1.73.19,2.41.57c.68.38,1.21.91,1.59,1.6.38.69.56,1.51.56,2.46s-.19,1.77-.56,2.47c-.38.7-.91,1.24-1.59,1.61-.68.38-1.48.57-2.41.57ZM112.6,60.07c.68,0,1.23-.25,1.64-.74s.62-1.22.62-2.18-.21-1.7-.62-2.18-.96-.72-1.64-.72-1.23.24-1.64.72-.62,1.21-.62,2.18.21,1.69.62,2.18.96.74,1.64.74Z"/>
        <path class="cls-3" d="M119.95,64.05l-.93-.73c.27-.27.47-.52.62-.76.15-.24.25-.48.32-.72s.1-.49.1-.75l.49.53h-1.71v-2.53h2.55v1.68c0,.41-.05.8-.14,1.17-.09.37-.24.72-.45,1.07-.21.35-.49.7-.86,1.05Z"/>
        <path class="cls-3" d="M0,79.85v-12.85h2.33v12.85H0Z"/>
        <path class="cls-3" d="M4.9,79.85v-8.91h2.22v1.79h-.2c.27-.64.68-1.13,1.25-1.47s1.21-.5,1.92-.5,1.31.13,1.77.4c.46.27.81.67,1.04,1.21.23.54.35,1.22.35,2.05v5.43h-2.28v-5.32c0-.46-.06-.84-.17-1.13-.12-.29-.29-.51-.53-.65-.24-.14-.54-.21-.9-.21-.44,0-.82.09-1.15.28s-.58.46-.77.8c-.18.35-.27.75-.27,1.21v5.01h-2.28Z"/>
        <path class="cls-3" d="M18.99,80.03c-.78,0-1.46-.19-2.05-.57-.59-.38-1.05-.91-1.38-1.61-.33-.7-.49-1.52-.49-2.47s.16-1.78.49-2.47.79-1.22,1.38-1.59c.59-.38,1.27-.57,2.05-.57s1.39.18,1.94.55c.55.37.93.84,1.12,1.44h-.2v-5.74h2.28v12.85h-2.22v-1.9h.16c-.18.63-.55,1.14-1.11,1.51-.56.38-1.22.57-1.97.57ZM19.63,78.3c.68,0,1.23-.25,1.64-.74s.62-1.22.62-2.18-.21-1.7-.62-2.18-.96-.72-1.64-.72-1.23.24-1.64.72-.62,1.21-.62,2.18.21,1.69.62,2.18.96.74,1.64.74Z"/>
        <path class="cls-3" d="M29.73,80.03c-.74,0-1.36-.14-1.84-.41s-.85-.68-1.08-1.23c-.24-.55-.36-1.23-.36-2.04v-5.41h2.28v5.45c0,.41.06.76.17,1.04.12.28.29.49.53.62.24.13.54.2.9.2.41,0,.77-.09,1.08-.28.31-.19.55-.46.73-.8.18-.35.26-.75.26-1.21v-5.01h2.28v8.91h-2.22v-1.86h.25c-.25.66-.64,1.16-1.16,1.51-.52.35-1.13.53-1.83.53Z"/>
        <path class="cls-3" d="M40.32,80.03c-.5,0-.98-.04-1.45-.13-.47-.08-.9-.2-1.29-.36-.39-.15-.73-.34-1.02-.57l.58-1.49c.3.19.63.36.98.51.35.15.72.26,1.09.33.38.07.75.11,1.11.11.58,0,1.02-.1,1.3-.3.29-.2.43-.46.43-.79,0-.28-.09-.5-.28-.65-.19-.15-.47-.26-.85-.34l-1.82-.35c-.75-.15-1.33-.42-1.72-.83-.4-.41-.59-.93-.59-1.58,0-.58.16-1.09.48-1.51.32-.42.77-.75,1.34-.98.57-.23,1.23-.35,1.97-.35.43,0,.84.04,1.24.12.4.08.78.19,1.14.35.36.15.67.35.94.59l-.62,1.49c-.23-.19-.5-.36-.8-.5s-.62-.25-.94-.33c-.32-.08-.64-.12-.94-.12-.6,0-1.04.1-1.32.31-.29.21-.43.48-.43.82,0,.25.08.47.26.64.17.17.43.29.78.35l1.82.35c.79.15,1.39.41,1.79.8s.61.91.61,1.57c0,.6-.16,1.11-.47,1.53s-.76.75-1.33.97-1.24.34-2,.34Z"/>
        <path class="cls-3" d="M50.03,80.03c-1.19,0-2.08-.3-2.66-.89-.58-.59-.88-1.46-.88-2.61v-3.88h-1.71v-1.71h1.71v-2.66h2.28v2.66h2.7v1.71h-2.7v3.75c0,.58.13,1.02.38,1.31.26.29.67.44,1.24.44.17,0,.35-.02.53-.06s.37-.09.56-.14l.35,1.68c-.22.12-.5.22-.83.29-.33.07-.66.11-.98.11Z"/>
        <path class="cls-3" d="M52.95,79.85v-8.91h2.22v2.15h-.18c.17-.73.5-1.29,1-1.67s1.16-.6,1.99-.67l.69-.05.15,1.93-1.31.13c-.74.07-1.3.3-1.68.68-.38.38-.56.92-.56,1.61v4.79h-2.31Z"/>
        <path class="cls-3" d="M59.95,69.02v-2.22h2.55v2.22h-2.55ZM60.09,79.85v-8.91h2.28v8.91h-2.28Z"/>
        <path class="cls-3" d="M67.68,80.03c-.64,0-1.22-.12-1.72-.37-.5-.25-.9-.59-1.19-1.01-.29-.42-.43-.91-.43-1.44,0-.66.17-1.18.51-1.56s.89-.66,1.66-.83,1.79-.26,3.08-.26h.91v1.31h-.89c-.57,0-1.05.02-1.44.06-.39.04-.7.11-.94.2-.24.09-.41.22-.51.37-.1.16-.16.35-.16.58,0,.4.14.73.42.98.28.25.67.38,1.17.38.4,0,.76-.09,1.07-.28.31-.19.56-.45.74-.77.18-.33.27-.71.27-1.13v-2.1c0-.61-.13-1.04-.4-1.31-.27-.27-.72-.4-1.35-.4-.5,0-1.01.08-1.53.23-.52.15-1.05.39-1.59.7l-.66-1.55c.32-.22.69-.41,1.12-.57s.89-.29,1.37-.38c.48-.09.93-.14,1.36-.14.88,0,1.59.13,2.16.4.56.27.99.67,1.27,1.21.28.54.42,1.24.42,2.09v5.4h-2.13v-1.9h.15c-.09.43-.25.79-.5,1.1s-.56.55-.94.72c-.38.17-.81.26-1.29.26Z"/>
        <path class="cls-3" d="M80.43,83.13l1.86-4.1v.95l-3.92-9.04h2.42l2.77,6.91h-.55l2.82-6.91h2.3l-5.36,12.19h-2.35Z"/>
        <path class="cls-3" d="M97.46,79.85v-10.9h-4.41v-1.95h11.15v1.95h-4.41v10.9h-2.33Z"/>
        <path class="cls-3" d="M108.69,80.03c-.74,0-1.36-.14-1.84-.41s-.85-.68-1.08-1.23c-.24-.55-.36-1.23-.36-2.04v-5.41h2.28v5.45c0,.41.06.76.17,1.04.12.28.29.49.53.62.24.13.54.2.9.2.41,0,.77-.09,1.08-.28.31-.19.55-.46.73-.8.18-.35.26-.75.26-1.21v-5.01h2.28v8.91h-2.22v-1.86h.25c-.25.66-.64,1.16-1.16,1.51-.52.35-1.13.53-1.83.53Z"/>
        <path class="cls-3" d="M116.01,79.85v-8.91h2.22v2.15h-.18c.17-.73.5-1.29,1-1.67s1.16-.6,1.99-.67l.69-.05.15,1.93-1.31.13c-.74.07-1.3.3-1.68.68-.38.38-.56.92-.56,1.61v4.79h-2.31Z"/>
        <path class="cls-3" d="M123.01,69.02v-2.22h2.55v2.22h-2.55ZM123.16,79.85v-8.91h2.28v8.91h-2.28Z"/>
        <path class="cls-3" d="M131.07,80.03c-.5,0-.98-.04-1.45-.13-.47-.08-.9-.2-1.29-.36-.39-.15-.73-.34-1.02-.57l.58-1.49c.3.19.63.36.98.51.35.15.72.26,1.09.33.38.07.75.11,1.11.11.58,0,1.02-.1,1.3-.3.29-.2.43-.46.43-.79,0-.28-.09-.5-.28-.65-.19-.15-.47-.26-.85-.34l-1.82-.35c-.75-.15-1.33-.42-1.72-.83-.4-.41-.59-.93-.59-1.58,0-.58.16-1.09.48-1.51.32-.42.77-.75,1.34-.98.57-.23,1.23-.35,1.97-.35.43,0,.84.04,1.24.12.4.08.78.19,1.14.35.36.15.67.35.94.59l-.62,1.49c-.23-.19-.5-.36-.8-.5s-.62-.25-.94-.33c-.32-.08-.64-.12-.94-.12-.6,0-1.04.1-1.32.31-.29.21-.43.48-.43.82,0,.25.08.47.26.64.17.17.43.29.78.35l1.82.35c.79.15,1.39.41,1.79.8s.61.91.61,1.57c0,.6-.16,1.11-.47,1.53s-.76.75-1.33.97-1.24.34-2,.34Z"/>
        <path class="cls-3" d="M136.74,79.85v-8.91h2.22v1.79h-.2c.16-.41.38-.77.66-1.06.28-.29.61-.52,1-.67.39-.16.82-.24,1.29-.24.72,0,1.31.17,1.77.51.46.34.78.86.97,1.57h-.25c.24-.64.64-1.15,1.2-1.52.56-.37,1.2-.56,1.93-.56.68,0,1.24.13,1.69.4.44.27.77.67.99,1.21.22.54.33,1.22.33,2.05v5.43h-2.28v-5.34c0-.68-.11-1.18-.34-1.49-.23-.32-.6-.47-1.14-.47-.39,0-.73.09-1.02.28s-.51.46-.67.81c-.15.35-.23.78-.23,1.28v4.94h-2.28v-5.34c0-.68-.11-1.18-.34-1.49-.22-.32-.6-.47-1.12-.47-.4,0-.74.09-1.03.28-.29.19-.5.46-.66.81-.15.35-.23.78-.23,1.28v4.94h-2.28Z"/>
        <path class="cls-3" d="M156.75,80.03c-.92,0-1.73-.19-2.41-.57-.68-.38-1.21-.91-1.59-1.61-.38-.7-.57-1.52-.57-2.47s.19-1.77.57-2.46c.38-.69.9-1.23,1.59-1.6.68-.38,1.48-.57,2.41-.57s1.73.19,2.41.57c.68.38,1.21.91,1.59,1.6.38.69.56,1.51.56,2.46s-.19,1.77-.56,2.47c-.38.7-.91,1.24-1.59,1.61-.68.38-1.48.57-2.41.57ZM156.75,78.3c.68,0,1.23-.25,1.64-.74s.62-1.22.62-2.18-.21-1.7-.62-2.18-.96-.72-1.64-.72-1.23.24-1.64.72-.62,1.21-.62,2.18.21,1.69.62,2.18.96.74,1.64.74Z"/>
      </g>
      <g>
        <rect class="cls-4" x="68.76" y="82.4" width="3.41" height="19.69" transform="translate(-21.78 162.71) rotate(-90)"/>
        <rect class="cls-1" x="83.52" y="87.32" width="3.41" height="9.84" transform="translate(-7.01 177.47) rotate(-90)"/>
        <rect class="cls-2" x="93.36" y="87.32" width="3.41" height="9.84" transform="translate(2.82 187.31) rotate(-90)"/>
      </g>
    </g>
  </g>
</svg>